<svg width="40" height="42" viewBox="0 0 40 42" fill="none" xmlns="http://www.w3.org/2000/svg" xmlns:xlink="http://www.w3.org/1999/xlink">
<path d="M2.637,28.453L4.121,28.676C4.122,28.666 4.124,28.656 4.125,28.646L2.637,28.453ZM4.131,16.908L2.657,16.633C2.652,16.66 2.647,16.688 2.644,16.715L4.131,16.908ZM35.484,16.908L36.972,16.715C36.966,16.671 36.958,16.627 36.948,16.583L35.484,16.908ZM36.978,28.453L35.49,28.646L35.493,28.667L36.978,28.453ZM27.786,37.589L11.759,37.589L11.759,40.589L27.786,40.589L27.786,37.589ZM11.759,37.589C8.918,37.589 6.809,37.062 5.534,35.87C4.338,34.752 3.516,32.69 4.121,28.676L1.154,28.23C0.476,32.735 1.271,35.991 3.485,38.061C5.619,40.057 8.711,40.589 11.759,40.589L11.759,37.589ZM4.125,28.646L5.619,17.1L2.644,16.715L1.15,28.261L4.125,28.646ZM5.606,17.182C5.95,15.334 6.685,14.188 7.468,13.507C8.258,12.82 9.181,12.53 10.036,12.53L10.036,9.53C8.501,9.53 6.867,10.054 5.5,11.243C4.126,12.438 3.104,14.23 2.657,16.633L5.606,17.182ZM10.036,12.53L29.579,12.53L29.579,9.53L10.036,9.53L10.036,12.53ZM29.579,12.53C31.161,12.53 33.225,13.644 34.019,17.232L36.948,16.583C35.915,11.915 32.848,9.53 29.579,9.53L29.579,12.53ZM33.996,17.1L35.49,28.646L38.465,28.261L36.972,16.715L33.996,17.1ZM35.493,28.667C35.993,32.133 35.205,34.265 33.933,35.549C32.619,36.875 30.504,37.589 27.786,37.589L27.786,40.589C30.956,40.589 33.982,39.763 36.064,37.66C38.188,35.516 39.052,32.33 38.462,28.239L35.493,28.667Z" fill="#6A6E83"/>
<path d="M26.55,10.61C26.55,11.439 27.221,12.11 28.05,12.11C28.878,12.11 29.55,11.439 29.55,10.61L26.55,10.61ZM19.755,0.854C18.926,0.854 18.255,1.525 18.255,2.354C18.255,3.182 18.926,3.854 19.755,3.854L19.755,0.854ZM11.425,10.61L11.425,12.11C11.822,12.11 12.204,11.952 12.485,11.671C12.767,11.39 12.925,11.008 12.925,10.61L11.425,10.61ZM11.425,9.11C10.596,9.11 9.925,9.782 9.925,10.61C9.925,11.439 10.596,12.11 11.425,12.11L11.425,9.11ZM29.55,10.61C29.55,5.215 25.158,0.854 19.755,0.854L19.755,3.854C23.514,3.854 26.55,6.885 26.55,10.61L29.55,10.61ZM19.761,0.854C17.158,0.843 14.657,1.864 12.811,3.694L14.923,5.825C16.203,4.556 17.939,3.846 19.748,3.854L19.761,0.854ZM12.811,3.694C10.964,5.525 9.925,8.013 9.925,10.61L12.925,10.61C12.925,8.816 13.643,7.093 14.923,5.825L12.811,3.694ZM11.425,9.11L11.425,9.11L11.425,12.11L11.425,12.11L11.425,9.11Z" fill="#6A6E83"/>
<path d="M25.449,20.717C26.277,20.717 26.949,20.045 26.949,19.217C26.949,18.389 26.277,17.717 25.449,17.717L25.449,20.717ZM25.361,17.717C24.533,17.717 23.861,18.389 23.861,19.217C23.861,20.045 24.533,20.717 25.361,20.717L25.361,17.717ZM25.449,17.717L25.361,17.717L25.361,20.717L25.449,20.717L25.449,17.717Z" fill="#6A6E83"/>
<path d="M14.254,20.717C15.083,20.717 15.754,20.045 15.754,19.217C15.754,18.389 15.083,17.717 14.254,17.717L14.254,20.717ZM14.166,17.717C13.338,17.717 12.666,18.389 12.666,19.217C12.666,20.045 13.338,20.717 14.166,20.717L14.166,17.717ZM14.254,17.717L14.166,17.717L14.166,20.717L14.254,20.717L14.254,17.717Z" fill="#6A6E83"/>
</svg>
