<svg width="452" height="386" viewBox="0 0 452 386" fill="none" xmlns="http://www.w3.org/2000/svg" xmlns:xlink="http://www.w3.org/1999/xlink">
<path d="M372.85,140.199C372.85,205.16 333.207,257.82 284.304,257.82C235.401,257.82 195.758,205.16 195.758,140.199C195.758,75.239 235.401,22.578 284.304,22.578C333.207,22.578 372.85,75.239 372.85,140.199Z" transform="rotate(38.402 284.304 140.199)" stroke="#FFBC00" stroke-width="25" stroke-miterlimit="3.999327"/>
<path d="M177.956,136.357C177.956,201.317 138.312,253.978 89.409,253.978C40.507,253.978 0.863,201.317 0.863,136.357C0.863,71.397 40.507,18.736 89.409,18.736C138.312,18.736 177.956,71.397 177.956,136.357Z" transform="rotate(-26.912 89.409 136.357)" stroke="#FFBC00" stroke-width="25" stroke-miterlimit="3.999327"/>
<path d="M451.479,294.369C451.479,344.897 420.52,385.857 382.331,385.857C344.141,385.857 313.183,344.897 313.183,294.369C313.183,243.842 344.141,202.882 382.331,202.882C420.52,202.882 451.479,243.842 451.479,294.369Z" transform="rotate(82.6 382.331 294.37)" stroke="#FFBC00" stroke-width="17" stroke-miterlimit="3.999327"/>
</svg>
