<svg width="488" height="406" viewBox="0 0 488 406" fill="none" xmlns="http://www.w3.org/2000/svg" xmlns:xlink="http://www.w3.org/1999/xlink">
<path d="M175.929,114.141C175.929,164.669 144.97,205.629 106.78,205.629C68.591,205.629 37.632,164.669 37.632,114.141C37.632,63.614 68.591,22.653 106.78,22.653C144.97,22.653 175.929,63.614 175.929,114.141Z" transform="rotate(-63.054 106.781 114.141)" stroke="#FFBC00" stroke-width="17" stroke-miterlimit="3.999327"/>
<path d="M387.418,399.162C400.762,395.618 408.708,381.926 405.162,368.582C401.618,355.238 387.928,347.294 374.582,350.838L387.418,399.162ZM233,380L231.126,404.93L233,380ZM153,337L173.389,322.534L173.389,322.534L153,337ZM168,227L184.748,245.561L184.748,245.561L168,227ZM212.184,197.983L191.033,184.655L191.033,184.655L212.184,197.983ZM226,140L201.967,133.113L226,140ZM387,140L365.198,152.232L365.198,152.232L387,140ZM396.184,197.983L374.22,209.924L396.184,197.983ZM421.184,212.983L433.744,191.367L421.184,212.983ZM424.47,315.986C416.74,327.426 419.748,342.968 431.188,350.698C442.628,358.428 458.168,355.42 465.898,343.98L424.47,315.986ZM296.923,97.677L294.346,72.81L296.923,97.677ZM374.582,350.838C366.316,353.034 355.638,351.704 342.14,347.924C335.058,345.94 330.063,344.19 322.94,342.048C317.499,340.412 309.142,337.982 301.184,337.982L301.184,387.982C300.725,387.982 302.322,388.058 308.538,389.928C313.07,391.292 321.432,394.048 328.656,396.072C343.772,400.304 365.502,404.984 387.418,399.162L374.582,350.838ZM301.184,337.982C292.887,337.982 285.038,340.476 279.703,342.366C274.482,344.216 267.402,347.144 262.769,348.924C251.433,353.276 242.619,355.652 234.874,355.07L231.126,404.93C250.748,406.404 268.526,400.272 280.69,395.602C287.807,392.87 291.704,391.158 296.398,389.496C300.978,387.874 301.981,387.982 301.184,387.982L301.184,337.982ZM234.874,355.07C216.454,353.686 207.809,352.55 200.389,349.11C193.747,346.032 185.661,339.828 173.389,322.534L132.611,351.466C147.377,372.276 161.606,386.244 179.362,394.474C196.34,402.344 214.177,403.656 231.126,404.93L234.874,355.07ZM173.389,322.534C161.862,306.288 159.306,293.417 160.861,283.007C162.474,272.205 169.178,259.61 184.748,245.561L151.252,208.439C130.308,227.338 115.283,249.688 111.409,275.621C107.478,301.946 115.678,327.602 132.611,351.466L173.389,322.534ZM184.748,245.561C185.326,245.039 186.914,243.879 190.442,241.96C194.113,239.963 197.506,238.367 202.614,235.767C207.125,233.471 212.608,230.56 217.717,227.015C222.74,223.529 228.815,218.484 233.335,211.311L191.033,184.655C191.536,183.857 191.478,184.364 189.211,185.937C187.031,187.45 184.068,189.103 179.936,191.206C176.4,193.005 170.953,195.642 166.546,198.04C161.995,200.516 156.267,203.913 151.252,208.439L184.748,245.561ZM233.335,211.311C241.141,198.923 243.834,184.267 245.451,173.891C247.392,161.433 248.026,153.89 250.033,146.887L201.967,133.113C198.816,144.11 197.33,157.959 196.047,166.193C194.44,176.509 192.804,181.845 191.033,184.655L233.335,211.311ZM250.033,146.887C251.776,140.804 256.999,135.157 267.76,130.357C278.418,125.603 290.858,123.439 299.5,122.544L294.346,72.81C283.398,73.945 264.99,76.844 247.391,84.694C229.894,92.499 209.451,106.998 201.967,133.113L250.033,146.887ZM315.653,122.246C334.649,123.373 344.408,128.133 350.092,132.494C356.176,137.16 360.13,143.198 365.198,152.232L408.804,127.768C403.39,118.119 395.306,104.16 380.524,92.821C365.344,81.176 345.41,73.923 318.614,72.334L315.653,122.246ZM365.198,152.232C367.518,156.367 368.61,162.891 368.846,173.445C368.936,177.427 368.91,184.313 369.158,189.007C369.386,193.314 369.95,202.069 374.22,209.924L418.148,186.041C419.808,189.094 419.318,190.698 419.088,186.357C418.878,182.402 418.986,179.142 418.834,172.329C418.588,161.292 417.7,143.627 408.804,127.768L365.198,152.232ZM374.22,209.924C377.042,215.115 380.626,219.781 385.32,223.616C389.988,227.429 394.644,229.504 398.162,230.797C406.458,233.845 405.394,232.721 408.624,234.599L433.744,191.367C429.072,188.652 424.868,186.988 421.468,185.825C419.88,185.283 418.356,184.814 417.396,184.515C416.288,184.169 415.772,183.999 415.406,183.864C414.87,183.668 415.792,183.946 416.954,184.896C418.144,185.868 418.454,186.605 418.148,186.041L374.22,209.924ZM408.624,234.599C423.176,243.054 429.962,251.961 433.274,259.482C436.688,267.232 437.334,275.635 436.162,284.236C434.978,292.94 432.022,301.064 429.164,307.224C427.764,310.24 426.464,312.622 425.564,314.174C425.116,314.946 424.774,315.5 424.576,315.814C424.478,315.97 424.416,316.064 424.398,316.094C424.388,316.11 424.388,316.108 424.4,316.09C424.406,316.082 424.414,316.068 424.426,316.052C424.432,316.042 424.438,316.032 424.446,316.022C424.45,316.016 424.456,316.008 424.456,316.004C424.464,315.996 424.47,315.986 445.184,329.982C465.898,343.98 465.906,343.97 465.912,343.96C465.916,343.956 465.922,343.944 465.928,343.938C465.938,343.922 465.948,343.906 465.96,343.888C465.984,343.852 466.01,343.812 466.04,343.768C466.1,343.678 466.172,343.57 466.254,343.444C466.418,343.192 466.628,342.866 466.878,342.47C467.378,341.678 468.038,340.6 468.812,339.264C470.358,336.602 472.386,332.866 474.518,328.272C478.72,319.216 483.64,306.15 485.706,290.98C487.784,275.706 487.056,257.546 479.032,239.328C470.908,220.88 456.192,204.412 433.744,191.367L408.624,234.599ZM299.5,122.544C304.73,122.002 310.118,121.918 315.653,122.246L318.614,72.334C310.667,71.862 302.549,71.96 294.346,72.81L299.5,122.544Z" fill="#FFBC00"/>
</svg>
