<svg width="40" height="40" viewBox="0 0 40 40" fill="none" xmlns="http://www.w3.org/2000/svg" xmlns:xlink="http://www.w3.org/1999/xlink">
<path d="M20,3C29.388,3 37,10.611 37,20L40,20C40,8.953 31.045,0 20,0L20,3ZM37,20C37,29.388 29.388,37 20,37L20,40C31.045,40 40,31.044 40,20L37,20ZM20,37C10.611,37 3,29.388 3,20L0,20C0,31.044 8.954,40 20,40L20,37ZM3,20C3,10.61 10.611,3 20,3L20,0C8.954,0 0,8.954 0,20L3,20Z" fill="#121212"/>
<path d="M21.49,12.408C21.49,11.58 20.819,10.908 19.99,10.908C19.162,10.908 18.49,11.58 18.49,12.408L21.49,12.408ZM18.49,21.246C18.49,22.075 19.162,22.746 19.99,22.746C20.819,22.746 21.49,22.075 21.49,21.246L18.49,21.246ZM18.49,12.408L18.49,21.246L21.49,21.246L21.49,12.408L18.49,12.408Z" fill="#121212"/>
<path d="M19.99,25.592C18.885,25.592 17.99,26.487 17.99,27.592C17.99,28.696 18.885,29.592 19.99,29.592L19.99,25.592ZM20.01,29.592C21.115,29.592 22.01,28.696 22.01,27.592C22.01,26.487 21.115,25.592 20.01,25.592L20.01,29.592ZM19.99,29.592L20.01,29.592L20.01,25.592L19.99,25.592L19.99,29.592Z" fill="#121212"/>
</svg>
