<svg width="1084" height="1112" viewBox="0 0 1084 1112" fill="none" xmlns="http://www.w3.org/2000/svg" xmlns:xlink="http://www.w3.org/1999/xlink">
<path d="M258.926,16.899C230.161,24.773 213.226,54.475 221.1,83.24C228.974,112.005 258.676,128.941 287.44,121.067L258.926,16.899ZM536.184,140.983L494.558,175.384L531.486,220.064L573.442,180.07L536.184,140.983ZM926.184,125.983L966.388,89.932L964.22,87.515L961.778,85.375L926.184,125.983ZM536.184,1049.982L515.758,1099.97L540.718,1110.17L563.87,1096.346L536.184,1049.982ZM155.412,254.006C175.307,231.789 173.424,197.65 151.207,177.755C128.989,157.86 94.85,159.742 74.955,181.96L155.412,254.006ZM287.44,121.067C339.76,106.745 435.028,103.351 494.558,175.384L577.808,106.583C477.338,-14.985 325.94,-1.446 258.926,16.899L287.44,121.067ZM573.442,180.07C596.442,158.146 644.754,124.903 702.894,112.708C758.148,101.119 823.646,107.913 890.588,166.591L961.778,85.375C866.722,2.054 765.718,-10.819 680.724,7.008C598.612,24.23 532.926,69.487 498.926,101.896L573.442,180.07ZM885.98,162.034C944.206,226.968 997.986,346.314 966.762,491.774C935.612,636.884 817.33,819.198 508.498,1003.62L563.87,1096.346C888.036,902.768 1032.756,698.914 1072.356,514.442C1111.88,330.32 1044.16,176.665 966.388,89.932L885.98,162.034ZM556.608,999.994C431.226,948.764 283.012,807.852 191.195,649.636C145.686,571.216 116.399,492.466 109.314,422.692C102.311,353.718 117.06,296.836 155.412,254.006L74.955,181.96C11.216,253.139 -7.332,343.01 1.867,433.602C10.984,523.39 47.396,617.016 97.785,703.844C197.764,876.124 362.142,1037.202 515.758,1099.97L556.608,999.994Z" fill="#FFBC00"/>
<path d="M738.85,378.199C738.85,443.16 699.207,495.82 650.304,495.82C601.401,495.82 561.758,443.16 561.758,378.199C561.758,313.239 601.401,260.578 650.304,260.578C699.207,260.578 738.85,313.239 738.85,378.199Z" transform="rotate(38.402 650.304 378.199)" stroke="#FFBC00" stroke-width="48" stroke-miterlimit="3.999327"/>
<path d="M543.956,374.357C543.956,439.317 504.312,491.978 455.409,491.978C406.507,491.978 366.863,439.317 366.863,374.357C366.863,309.397 406.507,256.736 455.409,256.736C504.312,256.736 543.956,309.397 543.956,374.357Z" transform="rotate(-26.912 455.409 374.357)" stroke="#FFBC00" stroke-width="50" stroke-miterlimit="3.999327"/>
<path d="M411.929,524.141C411.929,574.669 380.97,615.629 342.78,615.629C304.591,615.629 273.632,574.669 273.632,524.141C273.632,473.614 304.591,432.653 342.78,432.653C380.97,432.653 411.929,473.614 411.929,524.141Z" transform="rotate(-63.054 342.781 524.141)" stroke="#FFBC00" stroke-width="36" stroke-miterlimit="3.999327"/>
<path d="M817.479,532.369C817.479,582.897 786.52,623.857 748.331,623.857C710.141,623.857 679.183,582.897 679.183,532.369C679.183,481.842 710.141,440.882 748.331,440.882C786.52,440.882 817.479,481.842 817.479,532.369Z" transform="rotate(82.6 748.331 532.37)" stroke="#FFBC00" stroke-width="41" stroke-miterlimit="3.999327"/>
<path d="M537.21,774.11C551.076,774.11 631.33,804.646 653.516,774.11C675.7,743.576 716.544,675.105 648.138,635.318C637.67,629.228 630.812,632.086 625.028,621.438C620.2,612.549 626.908,586.288 616.54,567.787C606.91,550.608 594.44,531.026 552.739,528.317C545.994,527.879 539.196,527.977 532.476,528.711C514.049,530.725 476.116,538.424 467.71,567.787C462.942,584.442 463.792,607.375 454.939,621.438C447.512,633.235 424.437,638.946 414.095,648.287C380.342,678.774 373.921,712.955 400.229,750.068C425.222,785.328 441.486,787.396 474.181,789.856C499.479,791.76 523.344,774.11 537.21,774.11Z" fill="#FFBC00" stroke="#FFBC00" stroke-width="39" stroke-miterlimit="3.999327" stroke-linecap="round"/>
</svg>
