<svg width="38" height="40" viewBox="0 0 38 40" fill="none" xmlns="http://www.w3.org/2000/svg" xmlns:xlink="http://www.w3.org/1999/xlink">
<path d="M25.432,29.947C26.261,29.947 26.932,29.275 26.932,28.447C26.932,27.618 26.261,26.947 25.432,26.947L25.432,29.947ZM10.992,26.947C10.164,26.947 9.492,27.618 9.492,28.447C9.492,29.275 10.164,29.947 10.992,29.947L10.992,26.947ZM25.432,26.947L10.992,26.947L10.992,29.947L25.432,29.947L25.432,26.947Z" fill="#121212"/>
<path d="M25.432,21.574C26.261,21.574 26.932,20.902 26.932,20.074C26.932,19.245 26.261,18.574 25.432,18.574L25.432,21.574ZM10.992,18.574C10.164,18.574 9.492,19.245 9.492,20.074C9.492,20.902 10.164,21.574 10.992,21.574L10.992,18.574ZM25.432,18.574L10.992,18.574L10.992,21.574L25.432,21.574L25.432,18.574Z" fill="#121212"/>
<path d="M16.503,13.22C17.331,13.22 18.003,12.549 18.003,11.72C18.003,10.892 17.331,10.22 16.503,10.22L16.503,13.22ZM10.993,10.22C10.164,10.22 9.493,10.892 9.493,11.72C9.493,12.549 10.164,13.22 10.993,13.22L10.993,10.22ZM16.503,10.22L10.993,10.22L10.993,13.22L16.503,13.22L16.503,10.22Z" fill="#121212"/>
<path d="M25.817,1.5L25.817,0L25.816,0L25.817,1.5ZM10.439,1.508L10.439,0.007L10.43,0.008L10.439,1.508ZM10.513,38.32L10.513,39.82L10.514,39.82L10.513,38.32ZM25.891,38.314L25.891,39.814L25.9,39.814L25.891,38.314ZM25.817,1.5C25.816,0 25.816,0 25.816,0C25.816,0 25.816,0 25.816,0C25.815,0 25.815,0 25.814,0C25.812,0 25.809,0 25.805,0C25.798,0 25.787,0 25.772,0C25.743,0 25.7,0 25.644,0C25.532,0 25.367,0 25.157,0C24.737,0 24.137,0 23.417,0.001C21.977,0.002 20.057,0.003 18.136,0.004C16.216,0.005 14.294,0.006 12.851,0.006C12.13,0.007 11.528,0.007 11.106,0.007C10.895,0.007 10.729,0.007 10.615,0.007C10.558,0.007 10.514,0.007 10.485,0.007C10.47,0.007 10.458,0.008 10.451,0.008C10.443,0.008 10.439,0.008 10.439,0.008L10.439,3.008C10.452,3.008 14.297,3.006 18.138,3.004C20.059,3.003 21.979,3.002 23.419,3.001C24.138,3 24.738,3 25.158,3C25.368,3 25.533,3 25.646,3C25.702,3 25.745,3 25.774,3C25.788,3 25.799,3 25.807,3C25.811,3 25.813,3 25.815,3C25.816,3 25.817,3 25.817,3C25.818,3 25.818,3 25.818,3C25.818,3 25.818,3 25.817,1.5ZM10.43,0.008C7.333,0.027 4.688,1.064 2.819,3.006C0.956,4.942 0.001,7.634 0.001,10.714L3.001,10.714C3.001,8.253 3.755,6.359 4.981,5.086C6.201,3.818 8.025,3.022 10.448,3.007L10.43,0.008ZM0.001,10.714L0.001,29.106L3.001,29.106L3.001,10.714L0.001,10.714ZM0.001,29.106C0.001,32.2 0.963,34.905 2.842,36.844C4.726,38.79 7.392,39.82 10.513,39.82L10.513,36.82C8.066,36.82 6.226,36.027 4.997,34.757C3.761,33.482 3.001,31.579 3.001,29.106L0.001,29.106ZM10.513,38.32C10.514,39.82 10.514,39.82 10.514,39.82C10.514,39.82 10.514,39.82 10.514,39.82C10.515,39.82 10.516,39.82 10.517,39.82C10.518,39.82 10.521,39.82 10.525,39.82C10.532,39.82 10.543,39.82 10.558,39.82C10.587,39.82 10.63,39.82 10.686,39.82C10.799,39.819 10.964,39.819 11.173,39.819C11.593,39.819 12.193,39.819 12.913,39.819C14.353,39.818 16.272,39.817 18.193,39.817C20.114,39.816 22.035,39.815 23.478,39.815C24.199,39.814 24.801,39.814 25.224,39.814C25.435,39.814 25.601,39.814 25.715,39.814C25.772,39.814 25.816,39.814 25.845,39.814C25.86,39.814 25.872,39.814 25.879,39.814C25.883,39.814 25.886,39.814 25.888,39.814C25.891,39.814 25.891,39.814 25.891,39.814L25.891,36.814C25.878,36.814 22.033,36.815 18.192,36.817C16.271,36.817 14.351,36.818 12.912,36.819C12.192,36.819 11.592,36.819 11.172,36.819C10.962,36.819 10.797,36.819 10.685,36.82C10.629,36.82 10.586,36.82 10.557,36.82C10.542,36.82 10.531,36.82 10.524,36.82C10.52,36.82 10.517,36.82 10.515,36.82C10.514,36.82 10.514,36.82 10.513,36.82C10.513,36.82 10.513,36.82 10.513,36.82C10.513,36.82 10.513,36.82 10.513,38.32ZM25.9,39.814C28.997,39.794 31.643,38.757 33.512,36.815C35.376,34.878 36.331,32.185 36.331,29.106L33.331,29.106C33.331,31.566 32.577,33.46 31.35,34.734C30.13,36.002 28.305,36.799 25.882,36.814L25.9,39.814ZM36.331,29.106L36.331,10.714L33.331,10.714L33.331,29.106L36.331,29.106ZM36.331,10.714C36.331,7.619 35.369,4.914 33.489,2.975C31.605,1.029 28.938,0 25.817,0L25.817,3C28.264,3 30.105,3.793 31.335,5.062C32.571,6.338 33.331,8.24 33.331,10.714L36.331,10.714Z" fill="#121212"/>
</svg>
