<svg width="26" height="26" viewBox="0 0 26 26" fill="none" xmlns="http://www.w3.org/2000/svg" xmlns:xlink="http://www.w3.org/1999/xlink">
<path d="M15.597,23.115C15.044,23.115 14.597,23.563 14.597,24.115C14.597,24.667 15.044,25.115 15.597,25.115L15.597,23.115ZM24.88,25.115C25.432,25.115 25.88,24.667 25.88,24.115C25.88,23.563 25.432,23.115 24.88,23.115L24.88,25.115ZM15.597,25.115L24.88,25.115L24.88,23.115L15.597,23.115L15.597,25.115Z" fill="#130F26"/>
<path d="M14.358,2.848L13.592,2.205L13.578,2.223L14.358,2.848ZM18.347,2.461L17.722,3.241L17.729,3.247L18.347,2.461ZM20.566,4.181L19.953,4.972C19.984,4.996 20.016,5.018 20.049,5.038L20.566,4.181ZM21.487,7.993L20.642,7.459L20.64,7.462L21.487,7.993ZM9.279,23.248L10.059,23.875L10.06,23.873L9.279,23.248ZM7.604,24.057L7.593,23.057L7.591,23.057L7.604,24.057ZM2.945,24.115L1.972,24.345C2.08,24.801 2.49,25.121 2.958,25.115L2.945,24.115ZM1.896,19.681L0.922,19.911L0.923,19.912L1.896,19.681ZM2.3,17.899L3.08,18.526L3.081,18.525L2.3,17.899ZM15.125,3.49C15.766,2.725 16.932,2.608 17.722,3.241L18.973,1.68C17.34,0.372 14.937,0.602 13.592,2.205L15.125,3.49ZM17.729,3.247C17.766,3.276 18.326,3.71 18.869,4.131C19.142,4.343 19.413,4.553 19.616,4.71C19.717,4.789 19.801,4.854 19.86,4.9C19.89,4.923 19.913,4.941 19.929,4.953C19.937,4.959 19.943,4.964 19.947,4.967C19.949,4.969 19.95,4.97 19.951,4.971C19.952,4.971 19.952,4.971 19.953,4.971C19.953,4.972 19.953,4.972 19.953,4.972C19.953,4.972 19.953,4.972 19.953,4.972C19.953,4.972 19.953,4.972 20.566,4.181C21.178,3.391 21.178,3.391 21.178,3.391C21.178,3.391 21.178,3.391 21.178,3.391C21.178,3.391 21.178,3.391 21.178,3.391C21.178,3.391 21.177,3.39 21.177,3.39C21.176,3.389 21.174,3.388 21.172,3.386C21.168,3.383 21.162,3.379 21.154,3.372C21.139,3.36 21.115,3.342 21.086,3.319C21.027,3.274 20.943,3.208 20.841,3.13C20.639,2.973 20.368,2.762 20.094,2.551C19.821,2.339 19.546,2.125 19.335,1.962C19.23,1.88 19.14,1.81 19.075,1.76C19.042,1.735 19.016,1.714 18.997,1.699C18.987,1.692 18.98,1.686 18.974,1.681C18.968,1.676 18.965,1.675 18.965,1.675L17.729,3.247ZM20.049,5.038C20.908,5.556 21.16,6.639 20.642,7.459L22.333,8.527C23.46,6.743 22.884,4.412 21.082,3.325L20.049,5.038ZM20.64,7.462C20.674,7.407 20.719,7.352 20.688,7.393C20.683,7.399 20.675,7.408 20.663,7.423C20.64,7.453 20.606,7.496 20.56,7.554C20.469,7.668 20.337,7.834 20.169,8.045C19.832,8.466 19.354,9.065 18.78,9.782C17.634,11.215 16.11,13.119 14.586,15.022C13.063,16.924 11.541,18.825 10.4,20.249C9.83,20.962 9.354,21.555 9.022,21.97C8.855,22.178 8.725,22.341 8.635,22.453C8.591,22.508 8.557,22.551 8.534,22.58C8.522,22.594 8.514,22.605 8.508,22.612C8.505,22.616 8.503,22.618 8.501,22.62C8.5,22.621 8.5,22.622 8.499,22.622C8.499,22.623 8.499,22.623 8.499,22.623C8.499,22.623 8.499,22.623 9.279,23.248C10.06,23.873 10.06,23.873 10.06,23.873C10.06,23.873 10.06,23.873 10.06,23.873C10.061,23.872 10.061,23.872 10.062,23.871C10.063,23.869 10.066,23.866 10.069,23.862C10.074,23.855 10.083,23.844 10.095,23.83C10.118,23.801 10.152,23.759 10.196,23.703C10.286,23.592 10.416,23.429 10.583,23.221C10.915,22.805 11.391,22.212 11.961,21.5C13.102,20.075 14.624,18.174 16.148,16.272C17.671,14.369 19.196,12.464 20.342,11.031C20.916,10.314 21.395,9.715 21.732,9.292C21.9,9.081 22.034,8.914 22.126,8.798C22.172,8.741 22.208,8.695 22.233,8.663C22.246,8.647 22.257,8.633 22.265,8.622C22.269,8.617 22.274,8.61 22.28,8.603C22.282,8.6 22.286,8.595 22.291,8.588C22.294,8.584 22.3,8.576 22.304,8.571C22.309,8.563 22.325,8.539 22.335,8.524L20.64,7.462ZM8.5,22.622C8.285,22.89 7.954,23.053 7.593,23.057L7.615,25.057C8.567,25.046 9.464,24.615 10.059,23.875L8.5,22.622ZM7.591,23.057L2.933,23.115L2.958,25.115L7.616,25.057L7.591,23.057ZM3.918,23.885L2.869,19.451L0.923,19.912L1.972,24.345L3.918,23.885ZM2.869,19.452C2.793,19.128 2.868,18.789 3.08,18.526L1.521,17.273C0.923,18.017 0.705,18.987 0.922,19.911L2.869,19.452ZM3.081,18.525L15.139,3.473L13.578,2.223L1.52,17.274L3.081,18.525Z" fill="#130F26"/>
<path d="M12.715,4.872C12.277,4.536 11.649,4.619 11.313,5.058C10.977,5.496 11.06,6.124 11.498,6.46L12.715,4.872ZM18.477,11.809C18.916,12.144 19.543,12.061 19.879,11.623C20.215,11.185 20.132,10.557 19.694,10.221L18.477,11.809ZM11.498,6.46L18.477,11.809L19.694,10.221L12.715,4.872L11.498,6.46Z" fill="#130F26"/>
</svg>
