<svg width="118" height="110" viewBox="0 0 118 110" fill="none" xmlns="http://www.w3.org/2000/svg" xmlns:xlink="http://www.w3.org/1999/xlink">
<path d="M76.649,108.018C103.158,108.018 124.694,85.89 115.036,61.202C114.837,60.693 114.637,60.196 114.436,59.712C109.167,46.99 101.443,35.431 91.707,25.695C81.97,15.958 70.411,8.235 57.69,2.965C54.625,1.696 50.473,0.748 45.741,0.039C20.558,-3.731 -0.284,18.601 -0.284,44.064L-0.284,44.064L-0.284,76.041L-0.284,79.413C-0.284,81.12 -0.009,82.816 0.531,84.435L0.531,84.435C0.977,85.774 1.6,87.047 2.383,88.221L3.769,90.3C5.03,92.192 6.475,93.955 8.083,95.563L10.12,97.599C13.083,100.563 16.469,103.071 20.166,105.043L20.166,105.043L20.166,105.043C23.828,106.996 27.915,108.018 32.065,108.018L39.873,108.018L67.388,108.018L76.649,108.018Z" transform="rotate(356.36 62.183 52.987)" fill="#FFD452"/>
</svg>
