<svg width="162" height="148" viewBox="0 0 162 148" fill="none" xmlns="http://www.w3.org/2000/svg" xmlns:xlink="http://www.w3.org/1999/xlink">
<path d="M120,146.003C146.51,146.003 167.448,124.274 160.256,98.758C158.404,92.185 156.354,86.084 154.267,81.045C147.181,63.938 136.795,48.394 123.702,35.301C110.609,22.208 95.065,11.822 77.958,4.736C71.021,1.862 59.935,0.212 47.971,-0.734C21.543,-2.825 0,19.493 0,46.003L0,60.003L0,103.003L0,107.538C0,109.833 0.37,112.113 1.096,114.29L1.096,114.29C1.696,116.091 2.533,117.803 3.586,119.382L5.449,122.177C7.146,124.721 9.089,127.092 11.251,129.254L14.949,132.952C18.298,136.301 22.124,139.136 26.302,141.364L27.5,142.003L27.5,142.003C32.424,144.629 37.919,146.003 43.5,146.003L54,146.003L91,146.003L120,146.003Z" fill="#F4D26B"/>
</svg>
