<svg width="40" height="30" viewBox="0 0 40 30" fill="none" xmlns="http://www.w3.org/2000/svg" xmlns:xlink="http://www.w3.org/1999/xlink">
<path d="M25.5,14L27,14L25.5,14ZM20,8.5L20,7L20,8.5ZM24,14C24,15.061 23.579,16.078 22.828,16.828L24.95,18.95C26.263,17.637 27,15.857 27,14L24,14ZM22.828,16.828C22.078,17.579 21.061,18 20,18L20,21C21.857,21 23.637,20.263 24.95,18.95L22.828,16.828ZM20,18C18.939,18 17.922,17.579 17.172,16.828L15.05,18.95C16.363,20.263 18.143,21 20,21L20,18ZM17.172,16.828C16.421,16.078 16,15.061 16,14L13,14C13,15.857 13.737,17.637 15.05,18.95L17.172,16.828ZM16,14C16,12.939 16.421,11.922 17.172,11.172L15.05,9.05C13.737,10.363 13,12.143 13,14L16,14ZM17.172,11.172C17.922,10.421 18.939,10 20,10L20,7C18.143,7 16.363,7.737 15.05,9.05L17.172,11.172ZM20,10C21.061,10 22.078,10.421 22.828,11.172L24.95,9.05C23.637,7.737 21.857,7 20,7L20,10ZM22.828,11.172C23.579,11.922 24,12.939 24,14L27,14C27,12.143 26.263,10.363 24.95,9.05L22.828,11.172Z" fill="#6A6E83"/>
<path d="M1.667,14L0.269,13.454C0.132,13.805 0.132,14.195 0.269,14.546L1.667,14ZM38.333,14L39.73,14.546C39.868,14.195 39.868,13.805 39.73,13.454L38.333,14ZM3.064,14.546C5.795,7.552 12.128,2.667 20,2.667L20,-0.333C10.771,-0.333 3.405,5.426 0.269,13.454L3.064,14.546ZM20,2.667C27.872,2.667 34.205,7.552 36.936,14.546L39.73,13.454C36.595,5.426 29.229,-0.333 20,-0.333L20,2.667ZM36.936,13.454C34.205,20.448 27.872,25.333 20,25.333L20,28.333C29.229,28.333 36.595,22.574 39.73,14.546L36.936,13.454ZM20,25.333C12.128,25.333 5.795,20.448 3.064,13.454L0.269,14.546C3.405,22.574 10.771,28.333 20,28.333L20,25.333Z" fill="#6A6E83"/>
</svg>
