<svg width="420" height="410" viewBox="0 0 420 410" fill="none" xmlns="http://www.w3.org/2000/svg" xmlns:xlink="http://www.w3.org/1999/xlink">
<path d="M315.239,17.512C313.109,18.097 311.855,20.297 312.439,22.428C313.024,24.558 315.224,25.812 317.355,25.228L315.239,17.512ZM346.362,29.078L343.276,31.623L346.013,34.941L349.124,31.971L346.362,29.078ZM388.291,27.462L391.272,24.795L391.111,24.615L390.93,24.457L388.291,27.462ZM346.362,126.971L344.846,130.673L346.698,131.431L348.415,130.404L346.362,126.971ZM306.752,32.564C308.509,31.225 308.848,28.715 307.509,26.958C306.17,25.201 303.66,24.862 301.903,26.2L306.752,32.564ZM317.355,25.228C320.087,24.478 324.89,23.859 329.918,24.611C334.91,25.358 339.788,27.396 343.276,31.623L349.447,26.532C344.334,20.335 337.388,17.64 331.101,16.699C324.851,15.764 318.921,16.503 315.239,17.512L317.355,25.228ZM349.124,31.971C351.781,29.434 357.265,25.653 363.916,24.256C370.351,22.904 377.985,23.736 385.652,30.468L390.93,24.457C381.181,15.896 370.914,14.611 362.271,16.427C353.842,18.197 347.07,22.871 343.599,26.185L349.124,31.971ZM385.311,30.13C391.899,37.489 397.916,50.92 394.419,67.238C390.928,83.529 377.767,103.525 344.308,123.539L348.415,130.404C383.011,109.71 398.126,88.118 402.241,68.915C406.351,49.738 399.306,33.769 391.272,24.795L385.311,30.13ZM347.877,123.269C333.703,117.468 313.729,101.352 302.334,83.012C296.66,73.878 293.357,64.579 293.621,56.021C293.879,47.673 297.538,39.584 306.752,32.564L301.903,26.2C290.905,34.58 285.962,44.855 285.625,55.774C285.294,66.484 289.402,77.355 295.539,87.234C307.769,106.919 329.024,124.197 344.846,130.673L347.877,123.269Z" transform="rotate(67.595 344.528 73.341)" fill="#FFC000"/>
<path d="M376.18,65.633C376.18,72.627 371.917,78.297 366.659,78.297C361.4,78.297 357.137,72.627 357.137,65.633C357.137,58.638 361.4,52.968 366.659,52.968C371.917,52.968 376.18,58.638 376.18,65.633Z" transform="rotate(106.057 366.659 65.633)" stroke="#FFC000" stroke-width="2.4" stroke-miterlimit="3.999327"/>
<path d="M358.997,53.633C358.997,60.628 354.734,66.299 349.476,66.299C344.218,66.299 339.956,60.628 339.956,53.633C339.956,46.638 344.218,40.967 349.476,40.967C354.734,40.967 358.997,46.638 358.997,53.633Z" transform="rotate(40.639 349.476 53.633)" stroke="#FFC000" stroke-width="2.4" stroke-miterlimit="3.999327"/>
<path d="M337.878,60.302C337.878,65.741 334.548,70.15 330.441,70.15C326.333,70.15 323.003,65.741 323.003,60.302C323.003,54.863 326.333,50.454 330.441,50.454C334.548,50.454 337.878,54.863 337.878,60.302Z" transform="rotate(4.455 330.441 60.302)" stroke="#FFC000" stroke-width="2.4" stroke-miterlimit="3.999327"/>
<path d="M373.621,85.292C373.621,90.73 370.29,95.138 366.181,95.138C362.072,95.138 358.741,90.73 358.741,85.292C358.741,79.855 362.072,75.447 366.181,75.447C370.29,75.447 373.621,79.855 373.621,85.292Z" transform="rotate(150.29 366.181 85.292)" stroke="#FFC000" stroke-width="2.4" stroke-miterlimit="3.999327"/>
<path d="M349.939,100.603C351.54,100.177 352.492,98.533 352.066,96.932C351.64,95.331 349.997,94.378 348.396,94.804L349.939,100.603ZM333.041,98.242L332.815,101.233L333.041,98.242ZM324.44,93.611L326.888,91.877L326.888,91.877L324.44,93.611ZM326.052,81.765L328.064,83.99L328.064,83.99L326.052,81.765ZM330.803,78.64L328.263,77.042L328.263,77.042L330.803,78.64ZM332.288,72.395L335.172,73.221L335.172,73.221L332.288,72.395ZM350.585,78.64L347.948,80.071L347.948,80.071L350.585,78.64ZM353.273,80.255L354.782,77.662L354.782,77.662L353.273,80.255ZM354.281,89.553C353.328,90.908 353.655,92.779 355.01,93.732C356.366,94.685 358.237,94.359 359.19,93.003L354.281,89.553ZM348.396,94.804C347.589,95.019 346.457,94.895 344.942,94.485C344.161,94.273 343.598,94.083 342.81,93.853C342.219,93.68 341.269,93.409 340.371,93.409L340.371,99.409C340.28,99.409 340.427,99.408 341.129,99.613C341.634,99.76 342.562,100.056 343.372,100.276C345.041,100.728 347.5,101.251 349.939,100.603L348.396,94.804ZM340.371,93.409C339.421,93.409 338.534,93.694 337.956,93.899C337.391,94.1 336.61,94.423 336.128,94.609C334.914,95.075 334.023,95.307 333.266,95.25L332.815,101.233C335,101.398 336.968,100.714 338.281,100.209C339.062,99.908 339.461,99.732 339.962,99.554C340.45,99.381 340.515,99.409 340.371,99.409L340.371,93.409ZM333.266,95.25C331.276,95.1 330.405,94.979 329.668,94.637C329.023,94.338 328.192,93.718 326.888,91.877L321.992,95.345C323.594,97.608 325.162,99.16 327.141,100.079C329.026,100.954 331.002,101.097 332.815,101.233L333.266,95.25ZM326.888,91.877C325.682,90.174 325.441,88.866 325.594,87.841C325.753,86.77 326.424,85.473 328.064,83.99L324.041,79.539C321.755,81.605 320.089,84.072 319.659,86.956C319.222,89.887 320.138,92.728 321.992,95.345L326.888,91.877ZM328.064,83.99C328.098,83.959 328.243,83.848 328.616,83.645C329.006,83.433 329.358,83.267 329.917,82.982C330.405,82.734 331.01,82.412 331.577,82.018C332.135,81.63 332.825,81.059 333.342,80.237L328.263,77.042C328.348,76.907 328.379,76.934 328.153,77.091C327.937,77.241 327.634,77.412 327.192,77.637C326.822,77.825 326.223,78.116 325.745,78.377C325.249,78.647 324.607,79.027 324.041,79.539L328.064,83.99ZM333.342,80.237C334.218,78.845 334.514,77.21 334.688,76.092C334.9,74.725 334.963,73.951 335.172,73.221L329.404,71.57C329.058,72.779 328.893,74.309 328.759,75.17C328.586,76.28 328.417,76.798 328.263,77.042L333.342,80.237ZM335.172,73.221C335.184,73.178 335.198,73.137 335.212,73.099L329.587,71.013C329.519,71.195 329.458,71.381 329.404,71.57L335.172,73.221ZM346.868,73.663C346.905,73.728 346.942,73.794 346.98,73.861L352.215,70.93C352.172,70.854 352.129,70.776 352.083,70.696L346.868,73.663ZM346.98,73.861C347.189,74.235 347.308,74.87 347.333,76.004C347.343,76.416 347.34,77.179 347.367,77.689C347.392,78.153 347.453,79.158 347.948,80.071L353.221,77.209C353.436,77.604 353.384,77.84 353.359,77.372C353.337,76.95 353.349,76.621 353.332,75.87C353.305,74.679 353.211,72.709 352.215,70.93L346.98,73.861ZM347.948,80.071C348.267,80.658 348.676,81.194 349.217,81.637C349.755,82.078 350.291,82.316 350.688,82.462C351.634,82.81 351.447,82.664 351.763,82.848L354.782,77.662C354.256,77.357 353.784,77.17 353.405,77.04C353.23,76.98 353.061,76.928 352.96,76.896C352.84,76.859 352.792,76.843 352.76,76.831C352.722,76.817 352.856,76.862 353.017,76.994C353.182,77.128 353.239,77.241 353.221,77.209L347.948,80.071ZM351.763,82.848C353.383,83.791 354.164,84.7 354.55,85.393C354.931,86.076 355.028,86.725 354.993,87.326C354.955,87.957 354.769,88.543 354.569,88.994C354.473,89.212 354.382,89.38 354.322,89.482C354.293,89.532 354.272,89.565 354.264,89.577C354.26,89.584 354.259,89.585 354.262,89.581C354.263,89.579 354.265,89.576 354.268,89.571C354.27,89.569 354.272,89.566 354.274,89.563C354.275,89.561 354.276,89.56 354.277,89.558C354.278,89.557 354.279,89.556 354.279,89.556C354.28,89.554 354.281,89.553 356.736,91.278C359.19,93.003 359.191,93.002 359.192,93C359.192,93 359.193,92.998 359.194,92.997C359.196,92.995 359.197,92.993 359.199,92.991C359.202,92.986 359.205,92.981 359.209,92.975C359.217,92.965 359.225,92.952 359.235,92.938C359.254,92.909 359.277,92.874 359.304,92.833C359.358,92.749 359.426,92.64 359.504,92.507C359.659,92.241 359.857,91.873 360.057,91.42C360.452,90.527 360.891,89.226 360.982,87.68C361.075,86.104 360.804,84.288 359.79,82.47C358.781,80.661 357.14,79.035 354.782,77.662L351.763,82.848ZM335.212,73.099C335.754,71.638 337.573,70.461 340.49,70.534C343.377,70.606 345.88,71.927 346.868,73.663L352.083,70.696C349.726,66.554 344.867,64.641 340.64,64.536C336.443,64.431 331.397,66.131 329.587,71.013L335.212,73.099Z" transform="rotate(67.595 340.276 83.012)" fill="#FFC000"/>
<path d="M90.14,409.462C83.03,408.318 74.286,405.294 67.013,401.534C46.909,391.156 25.661,368.682 19.123,350.866C16.998,345.064 16.753,343.43 16.753,334.604C16.753,325.696 16.917,324.388 18.96,320.138C20.104,317.606 22.637,313.928 24.435,311.884C27.949,308.044 36.203,303.14 39.145,303.14C40.126,303.14 40.861,302.814 40.861,302.406C40.861,301.914 38.491,296.766 35.549,290.8C29.91,279.36 29.257,276.336 31.872,273.72C33.915,271.678 38.491,271.514 40.208,273.558C40.861,274.292 43.885,279.85 46.827,285.816C61.864,315.972 83.602,344.982 102.725,360.428C144.077,393.608 207.984,383.066 236.996,338.118L240.1,333.46L236.914,330.028C235.198,328.148 232.338,323.654 230.54,319.976C222.286,303.304 221.714,286.224 228.904,272.004L231.438,266.938L228.496,258.275C223.02,241.603 222.694,223.951 227.76,208.015C230.948,197.882 237.158,186.195 242.47,180.475L244.35,178.432L239.038,173.692C226.698,162.741 216.238,145.988 210.6,127.845C206.676,115.26 205.614,108.232 205.532,94.666L205.532,81.917L208.148,76.932L210.762,71.865L190.332,71.865L169.983,71.865L172.516,76.197C185.183,97.608 192.048,126.783 192.048,158.9C192.048,170.995 191.231,175.163 188.779,176.47C186.491,177.696 183.385,177.451 181.506,175.898C179.953,174.509 179.79,173.365 179.463,156.448C178.727,121.798 172.762,99.079 159.114,78.158L154.946,71.865L139.664,71.865L124.3,71.865L123.728,76.524C123.401,79.139 123.401,90.498 123.728,101.694C124.463,131.196 126.997,152.444 131.165,165.683C133.371,172.711 132.881,175.408 129.04,176.797C123.483,178.759 120.949,175.735 117.844,162.986C113.594,146.069 111.715,125.557 111.633,95.401L111.551,71.865L99.947,71.865L88.26,71.865L85.727,75.298C79.353,84.042 73.795,97.935 70.935,112.073C69.382,120 69.056,123.759 69.137,138.878C69.137,151.218 69.546,158.736 70.527,164.048C71.834,171.894 71.752,173.365 69.628,175.898C68.238,177.451 64.479,177.778 62.109,176.47C59.167,174.836 57.369,164.947 56.634,145.416C55.653,119.019 60.311,95.156 69.873,77.831C71.426,74.971 72.733,72.437 72.733,72.274C72.733,71.293 53.038,72.029 48.298,73.091C31.627,77.096 17.979,90.988 14.138,107.987C12.177,116.649 12.177,155.141 14.138,171.567C17.325,198.045 22.964,224.115 30.237,245.444C33.343,254.679 33.425,257.539 30.564,259.746C24.925,264.16 21.902,260.726 16.917,244.3C5.639,206.871 0,170.831 0,136.917C0.082,103.982 4.004,90.743 17.979,76.769C25.007,69.741 31.954,65.409 41.27,62.222L47.808,60.016L203.49,60.016L359.17,60.016L364.482,62.549C371.02,65.655 376.66,71.13 379.764,77.423C381.808,81.59 382.054,83.143 382.298,91.479C382.626,103.165 380.828,115.505 378.458,117.875C376.414,120 372.41,120 370.122,117.957C368.568,116.568 368.488,115.832 368.896,111.501C369.14,108.804 369.632,102.021 369.876,96.382C370.448,84.778 369.712,82.162 364.32,77.014C359.988,72.846 356.066,71.865 343.154,71.865L331.794,71.865L333.346,75.87C337.27,85.758 338.986,103.901 337.27,117.957C336.124,126.701 331.548,129.97 326.4,125.557L324.194,123.677L325.174,114.034C326.726,99.324 324.848,85.595 319.944,76.033L317.9,71.865L308.912,71.865L299.922,71.865L299.922,97.608L299.922,123.432L297.878,125.394C295.346,128.009 292.24,128.009 289.706,125.394L287.664,123.432L287.664,97.608L287.664,71.865L278.674,71.865L269.684,71.865L267.968,75.298C262.738,85.595 260.776,98.589 262.33,113.217C263.146,121.553 263.146,122.86 262.002,124.576C259.632,128.172 254.402,128.254 252.114,124.74C250.48,122.206 249.008,106.271 249.662,98.017C250.316,90.008 252.032,81.345 254.238,75.788L255.792,71.865L244.432,71.865C231.52,71.865 227.598,72.846 223.266,77.014C218.526,81.59 217.218,85.023 217.3,93.277C217.464,113.217 224.002,134.628 234.708,150.074C239.12,156.448 247.374,165.356 251.134,167.889C253.176,169.197 253.34,169.197 257.59,166.01C267.314,158.655 280.554,153.098 292.73,151.136C296.734,150.482 303.19,150.237 310.3,150.564C322.232,150.973 330.24,152.771 340.456,157.265L345.114,159.309L347.158,157.511C349.854,154.977 357.372,143.454 359.824,138.224C362.604,132.34 364.238,130.706 367.424,130.706C370.366,130.706 373.472,133.729 373.472,136.671C373.472,139.123 365.626,153.588 360.724,160.126L356.31,166.01L363.502,173.038C376.496,185.95 383.442,198.862 387.692,218.312C388.018,219.865 389.49,221.173 392.84,223.052C405.426,230.162 414.334,243.565 417.276,259.827C420.054,275.356 418.338,282.138 410.084,287.696C395.946,297.338 378.866,300.77 364.32,297.094L358.926,295.704L354.512,298.972C341.682,308.78 321.906,314.908 304.58,314.5L296.572,314.254L294.282,317.116C291.994,319.812 291.914,320.22 291.504,332.152C291.014,346.046 289.788,352.01 285.376,361.082C279.9,372.36 270.256,379.96 257.672,382.902C247.21,385.354 228.006,383.392 215.012,378.57C213.542,377.998 211.662,378.57 206.022,381.35C191.067,388.868 179.054,391.646 160.013,391.81L145.548,391.974L140.399,395.814C133.943,400.718 123.973,405.54 116.046,407.746C109.181,409.626 96.514,410.442 90.14,409.462ZM113.022,395.896C117.844,394.67 130.184,388.95 129.53,388.296C129.367,388.132 126.752,387.07 123.81,386.09C109.59,381.104 96.433,372.442 83.766,359.774C75.185,351.194 63.09,336.238 54.918,324.226C48.461,314.746 46.99,313.682 41.27,315.318C34.65,317.116 29.42,323.816 28.194,331.826C26.56,342.776 36.04,360.674 50.913,374.812C64.561,387.724 78.045,395.078 92.755,397.448C96.923,398.102 108.037,397.286 113.022,395.896ZM257.1,370.562C269.848,366.802 278.102,354.054 279.246,336.32C279.736,329.374 279.654,329.046 278.184,329.618C271.238,332.316 264.046,334.276 259.142,334.686C253.912,335.176 253.094,335.502 251.868,337.382C245.332,348.088 240.428,354.544 233.972,361.082C229.804,365.332 226.454,368.928 226.616,369.01C226.78,369.172 229.068,369.826 231.766,370.48C238.304,372.032 251.95,372.114 257.1,370.562ZM268.376,320.058C273.77,318.014 283.25,312.294 282.434,311.476C282.188,311.312 279.082,309.924 275.568,308.534C263.146,303.468 251.706,295.05 242.634,284.1L238.712,279.442L237.404,283.69C234.38,294.07 236.668,306.574 243.778,318.586L246.394,322.918L254.566,322.508C260.614,322.264 264.21,321.61 268.376,320.058ZM323.622,300.198C335.716,297.174 349.61,288.84 357.618,280.014C370.204,266.12 376.25,250.266 376.17,231.633C376.088,219.456 374.29,211.938 368.568,200.415C360.152,183.335 343.072,169.442 324.52,164.621C310.71,161.025 297.388,161.433 284.394,165.846C251.378,176.961 230.948,211.121 237.322,244.463C243.042,274.048 265.516,296.03 295.59,301.506C301.23,302.568 317.41,301.834 323.622,300.198ZM388.182,284.59C393.25,283.2 399.706,280.176 403.546,277.234C405.998,275.436 406.162,274.946 406.162,270.616C406.08,258.928 401.502,246.997 394.066,239.478L389.572,234.902L389,237.354C388.672,238.743 387.938,242.666 387.446,246.18C385.648,257.703 379.764,271.596 372.574,281.158L369.304,285.57L372.41,286.06C376.496,286.714 382.544,286.142 388.182,284.59Z" fill="#FFC000"/>
<path d="M263.31,225.849C261.431,224.214 259.061,216.941 259.061,212.773C259.061,207.624 264.863,204.928 268.704,208.278C270.42,209.668 272.953,217.758 272.953,221.681C272.953,224.214 269.766,227.238 267.069,227.238C265.925,227.238 264.209,226.584 263.31,225.849Z" fill="#FFC000"/>
<path d="M351.652,249.094C349.528,248.195 348.874,247.215 347.73,243.21C346.994,240.595 346.177,237.817 346.013,236.999C344.706,232.668 349.854,228.173 354.186,229.808C356.556,230.789 357.863,233.24 359.661,240.35C360.642,244.273 360.56,244.763 359.089,246.806C356.883,249.666 354.676,250.402 351.652,249.094Z" fill="#FFC000"/>
<path d="M281.698,262.959C280.962,262.387 279.982,260.834 279.491,259.608C275.569,248.903 287.173,236.399 298.451,239.26C301.638,240.077 302.128,239.995 304.008,238.197C312.671,229.943 327.707,233.866 331.058,245.225C331.957,248.086 331.875,248.739 330.404,250.701C327.462,254.623 321.742,254.133 319.944,249.72C317.41,243.673 311.363,245.144 311.363,251.763C311.363,259.445 302.537,261.651 299.595,254.623C298.206,251.191 295.672,250.21 292.975,252.008C291.341,253.071 290.932,254.051 290.932,256.993C290.932,259.608 290.442,261.161 289.298,262.305C287.418,264.185 283.741,264.43 281.698,262.959Z" fill="#FFC000"/>
<path d="M107.302,154.462C105.34,153.481 104.441,151.602 102.644,144.573C100.927,137.545 102.644,134.195 107.874,134.195C111.715,134.195 113.104,135.747 114.738,142.04C116.618,149.313 116.455,151.765 113.921,153.726C111.551,155.606 109.999,155.769 107.302,154.462Z" fill="#FFC000"/>
<path d="M143.587,195.337C139.337,191.986 141.38,184.141 146.61,184.059C147.918,184.059 147.999,183.651 147.509,181.036C146.692,176.214 145.057,174.253 141.87,174.253C138.193,174.253 136.477,176.377 136.477,180.954C136.477,185.367 134.025,188.145 130.184,188.145C126.343,188.145 124.218,185.04 124.218,179.401C124.218,172.291 127.569,166.898 134.188,163.547C137.457,161.913 143.995,161.504 147.346,162.73C148.98,163.384 149.716,163.138 151.268,161.422C158.46,153.74 172.353,154.721 178.4,163.302C179.626,165.1 180.852,167.878 181.097,169.513C181.506,172.046 181.261,172.863 179.463,174.661C176.194,177.93 172.843,177.276 169.574,172.618C167.449,169.595 166.469,168.859 164.017,168.696C159.931,168.369 157.97,171.147 159.032,176.132C159.768,179.565 159.768,179.565 163.608,179.81C166.632,179.973 167.858,180.545 169.166,182.18C173.252,187.41 170.146,190.515 157.724,193.866C147.264,196.563 145.548,196.808 143.587,195.337Z" fill="#FFC000"/>
<path d="M202.917,178.791C201.936,177.728 200.629,174.214 199.73,170.537C198.341,164.326 198.341,164.162 199.975,161.956C201.038,160.567 202.509,159.668 204.143,159.504C208.066,159.096 210.354,161.956 212.152,169.393C213.623,175.604 213.541,175.767 211.907,177.974C209.7,180.997 205.369,181.406 202.917,178.791Z" fill="#FFC000"/>
</svg>
