<svg width="154" height="150" viewBox="0 0 154 150" fill="none" xmlns="http://www.w3.org/2000/svg" xmlns:xlink="http://www.w3.org/1999/xlink">
<path d="M115.224,5.892C114.159,6.184 113.532,7.284 113.824,8.35C114.116,9.415 115.216,10.042 116.282,9.749L115.224,5.892ZM126.755,10.641L125.212,11.914L126.581,13.573L128.136,12.088L126.755,10.641ZM142.1,10.05L143.59,8.716L143.51,8.627L143.419,8.547L142.1,10.05ZM126.755,46.467L125.997,48.318L126.923,48.696L127.782,48.183L126.755,46.467ZM112.584,12.344C113.463,11.674 113.633,10.419 112.963,9.541C112.294,8.662 111.039,8.492 110.16,9.162L112.584,12.344ZM116.282,9.749C117.218,9.493 118.9,9.274 120.658,9.537C122.398,9.797 124.045,10.499 125.212,11.914L128.298,9.369C126.318,6.969 123.637,5.938 121.25,5.581C118.88,5.226 116.635,5.505 115.224,5.892L116.282,9.749ZM128.136,12.088C129.054,11.212 130.975,9.888 133.289,9.401C135.497,8.938 138.114,9.212 140.78,11.553L143.419,8.547C139.712,5.292 135.778,4.791 132.467,5.487C129.263,6.16 126.699,7.93 125.374,9.195L128.136,12.088ZM140.61,11.384C142.924,13.969 145.057,18.714 143.818,24.494C142.582,30.261 137.897,37.472 125.728,44.75L127.782,48.183C140.519,40.564 146.181,32.555 147.729,25.332C149.274,18.123 146.627,12.109 143.59,8.716L140.61,11.384ZM127.513,44.616C122.436,42.538 115.212,36.718 111.098,30.096C109.053,26.804 107.898,23.506 107.99,20.518C108.079,17.635 109.332,14.822 112.584,12.344L110.16,9.162C106.016,12.32 104.121,16.226 103.992,20.395C103.866,24.458 105.423,28.542 107.701,32.207C112.232,39.501 120.097,45.902 125.997,48.318L127.513,44.616Z" transform="rotate(67.595 126.084 26.84)" fill="#FFFFFF"/>
<path d="M137.668,24.019C137.668,26.579 136.108,28.654 134.183,28.654C132.259,28.654 130.699,26.579 130.699,24.019C130.699,21.459 132.259,19.384 134.183,19.384C136.108,19.384 137.668,21.459 137.668,24.019Z" transform="rotate(106.057 134.183 24.019)" stroke="#FFFFFF" stroke-width="1" stroke-miterlimit="3.999327"/>
<path d="M131.379,19.628C131.379,22.188 129.819,24.263 127.895,24.263C125.971,24.263 124.411,22.188 124.411,19.628C124.411,17.068 125.971,14.992 127.895,14.992C129.819,14.992 131.379,17.068 131.379,19.628Z" transform="rotate(40.639 127.895 19.628)" stroke="#FFFFFF" stroke-width="1" stroke-miterlimit="3.999327"/>
<path d="M123.651,22.068C123.651,24.059 122.432,25.672 120.929,25.672C119.425,25.672 118.207,24.059 118.207,22.068C118.207,20.078 119.425,18.464 120.929,18.464C122.432,18.464 123.651,20.078 123.651,22.068Z" transform="rotate(4.455 120.929 22.068)" stroke="#FFFFFF" stroke-width="1" stroke-miterlimit="3.999327"/>
<path d="M136.731,31.214C136.731,33.204 135.512,34.817 134.008,34.817C132.505,34.817 131.286,33.204 131.286,31.214C131.286,29.224 132.505,27.611 134.008,27.611C135.512,27.611 136.731,29.224 136.731,31.214Z" transform="rotate(150.29 134.008 31.214)" stroke="#FFFFFF" stroke-width="1" stroke-miterlimit="3.999327"/>
<path d="M128.039,36.722C128.573,36.58 128.89,36.032 128.748,35.499C128.606,34.965 128.059,34.647 127.525,34.789L128.039,36.722ZM121.88,35.953L121.805,36.95L121.88,35.953ZM118.733,34.258L119.549,33.68L119.549,33.68L118.733,34.258ZM119.323,29.923L119.993,30.665L119.993,30.665L119.323,29.923ZM121.061,28.779L120.215,28.247L120.215,28.247L121.061,28.779ZM121.605,26.494L122.566,26.769L122.566,26.769L121.605,26.494ZM128.301,28.779L127.422,29.256L127.422,29.256L128.301,28.779ZM129.284,29.37L129.787,28.506L129.787,28.506L129.284,29.37ZM129.734,32.829C129.416,33.281 129.525,33.905 129.977,34.222C130.428,34.54 131.052,34.431 131.37,33.979L129.734,32.829ZM127.525,34.789C127.203,34.875 126.767,34.823 126.21,34.672C125.924,34.595 125.712,34.524 125.428,34.441C125.21,34.377 124.875,34.282 124.563,34.282L124.563,36.282C124.546,36.282 124.612,36.286 124.868,36.361C125.057,36.416 125.391,36.522 125.687,36.603C126.295,36.768 127.173,36.953 128.039,36.722L127.525,34.789ZM124.563,34.282C124.233,34.282 123.922,34.381 123.712,34.456C123.506,34.529 123.226,34.645 123.045,34.715C122.599,34.886 122.256,34.978 121.955,34.956L121.805,36.95C122.581,37.009 123.284,36.765 123.763,36.581C124.044,36.473 124.196,36.406 124.381,36.341C124.56,36.277 124.597,36.282 124.563,36.282L124.563,34.282ZM121.955,34.956C121.23,34.901 120.893,34.856 120.605,34.722C120.347,34.603 120.031,34.361 119.549,33.68L117.916,34.836C118.498,35.657 119.06,36.21 119.762,36.536C120.434,36.848 121.139,36.9 121.805,36.95L121.955,34.956ZM119.549,33.68C119.097,33.042 118.997,32.538 119.058,32.132C119.121,31.71 119.382,31.217 119.993,30.665L118.652,29.181C117.826,29.927 117.233,30.811 117.08,31.837C116.925,32.879 117.249,33.893 117.916,34.836L119.549,33.68ZM119.993,30.665C120.015,30.645 120.076,30.6 120.214,30.525C120.358,30.446 120.491,30.384 120.693,30.281C120.87,30.191 121.087,30.075 121.289,29.935C121.487,29.797 121.728,29.597 121.908,29.312L120.215,28.247C120.236,28.213 120.236,28.232 120.147,28.293C120.062,28.352 119.947,28.417 119.784,28.499C119.646,28.57 119.431,28.674 119.257,28.769C119.078,28.867 118.851,29.001 118.652,29.181L119.993,30.665ZM121.908,29.312C122.216,28.821 122.323,28.241 122.386,27.832C122.463,27.34 122.488,27.044 122.566,26.769L120.643,26.219C120.519,26.653 120.46,27.201 120.41,27.524C120.347,27.931 120.283,28.139 120.215,28.247L121.908,29.312ZM122.566,26.769C122.568,26.764 122.569,26.758 122.571,26.753L120.662,26.158C120.655,26.178 120.649,26.199 120.643,26.219L122.566,26.769ZM127.067,26.983C127.156,27.142 127.199,27.397 127.209,27.812C127.212,27.969 127.211,28.241 127.221,28.426C127.23,28.596 127.252,28.944 127.422,29.256L129.18,28.302C129.246,28.426 129.227,28.492 129.218,28.32C129.21,28.165 129.214,28.037 129.208,27.768C129.198,27.333 129.164,26.634 128.812,26.005L127.067,26.983ZM127.422,29.256C127.534,29.462 127.676,29.648 127.862,29.8C128.048,29.952 128.233,30.035 128.372,30.086C128.702,30.207 128.656,30.162 128.781,30.235L129.787,28.506C129.602,28.398 129.436,28.332 129.301,28.286C129.239,28.265 129.178,28.246 129.141,28.235C129.097,28.221 129.077,28.214 129.063,28.209C129.043,28.202 129.081,28.214 129.129,28.253C129.178,28.292 129.191,28.323 129.18,28.302L127.422,29.256ZM128.781,30.235C129.386,30.587 129.686,30.931 129.837,31.203C129.987,31.471 130.025,31.728 130.012,31.964C129.997,32.21 129.925,32.436 129.848,32.608C129.811,32.692 129.776,32.756 129.753,32.796C129.741,32.816 129.733,32.829 129.729,32.835C129.727,32.838 129.727,32.839 129.727,32.838C129.728,32.838 129.728,32.837 129.729,32.835C129.73,32.834 129.73,32.834 129.731,32.833C129.732,32.832 129.732,32.832 129.732,32.831C129.732,32.831 129.733,32.83 129.733,32.83C129.733,32.83 129.734,32.829 130.552,33.404C131.37,33.979 131.37,33.979 131.37,33.978C131.371,33.978 131.371,33.978 131.371,33.977C131.372,33.977 131.372,33.976 131.373,33.975C131.374,33.974 131.375,33.972 131.376,33.97C131.379,33.966 131.382,33.962 131.385,33.957C131.392,33.947 131.4,33.935 131.409,33.92C131.428,33.891 131.452,33.852 131.48,33.805C131.535,33.71 131.606,33.579 131.678,33.417C131.819,33.097 131.975,32.633 132.008,32.082C132.041,31.521 131.945,30.875 131.584,30.228C131.225,29.585 130.638,29.001 129.787,28.506L128.781,30.235ZM122.571,26.753C122.755,26.161 123.446,25.707 124.569,25.737C125.678,25.767 126.675,26.282 127.067,26.983L128.812,26.005C127.965,24.493 126.177,23.779 124.623,23.737C123.083,23.696 121.231,24.328 120.662,26.158L122.571,26.753Z" transform="rotate(67.595 124.528 30.379)" fill="#FFFFFF"/>
<path d="M32.988,149.847C30.386,149.429 27.186,148.322 24.524,146.946C17.167,143.148 9.391,134.923 6.998,128.404C6.221,126.28 6.131,125.682 6.131,122.452C6.131,119.192 6.191,118.714 6.939,117.158C7.357,116.231 8.284,114.886 8.942,114.138C10.228,112.732 13.249,110.938 14.326,110.938C14.685,110.938 14.954,110.818 14.954,110.669C14.954,110.489 14.086,108.605 13.01,106.422C10.946,102.235 10.707,101.128 11.664,100.171C12.412,99.423 14.086,99.364 14.714,100.111C14.954,100.38 16.06,102.414 17.137,104.597C22.64,115.633 30.595,126.25 37.594,131.903C52.727,144.045 76.114,140.187 86.731,123.738L87.868,122.033L86.701,120.777C86.073,120.089 85.027,118.445 84.369,117.099C81.348,110.998 81.139,104.747 83.77,99.543L84.698,97.689L83.621,94.519C81.617,88.418 81.498,81.958 83.352,76.126C84.518,72.417 86.791,68.14 88.735,66.047L89.423,65.299L87.479,63.565C82.963,59.557 79.135,53.426 77.071,46.786C75.636,42.181 75.247,39.609 75.217,34.644L75.217,29.979L76.174,28.154L77.131,26.3L69.654,26.3L62.207,26.3L63.134,27.885C67.77,35.721 70.282,46.398 70.282,58.151C70.282,62.578 69.983,64.103 69.086,64.581C68.249,65.03 67.112,64.94 66.424,64.372C65.856,63.864 65.796,63.445 65.677,57.254C65.407,44.573 63.224,36.259 58.23,28.603L56.704,26.3L51.112,26.3L45.489,26.3L45.28,28.005C45.16,28.962 45.16,33.119 45.28,37.216C45.549,48.013 46.476,55.789 48.001,60.634C48.809,63.206 48.629,64.193 47.224,64.701C45.19,65.419 44.263,64.312 43.126,59.647C41.571,53.456 40.883,45.949 40.853,34.913L40.824,26.3L36.577,26.3L32.3,26.3L31.373,27.556C29.04,30.756 27.006,35.84 25.96,41.014C25.391,43.915 25.272,45.291 25.302,50.824C25.302,55.34 25.451,58.091 25.81,60.035C26.289,62.907 26.259,63.445 25.481,64.372C24.973,64.94 23.597,65.06 22.73,64.581C21.653,63.983 20.995,60.364 20.726,53.217C20.367,43.557 22.072,34.824 25.571,28.483C26.139,27.436 26.618,26.509 26.618,26.449C26.618,26.091 19.41,26.36 17.675,26.749C11.574,28.214 6.58,33.298 5.174,39.519C4.456,42.689 4.456,56.776 5.174,62.787C6.34,72.477 8.404,82.017 11.066,89.823C12.202,93.203 12.232,94.249 11.185,95.057C9.122,96.672 8.015,95.416 6.191,89.404C2.064,75.707 0,62.518 0,50.106C0.03,38.054 1.465,33.209 6.58,28.094C9.152,25.522 11.694,23.937 15.103,22.771L17.496,21.963L74.469,21.963L131.443,21.963L133.387,22.891C135.779,24.027 137.843,26.031 138.979,28.334C139.727,29.859 139.817,30.427 139.907,33.478C140.026,37.754 139.368,42.27 138.501,43.138C137.753,43.915 136.288,43.915 135.45,43.168C134.882,42.659 134.852,42.39 135.002,40.805C135.091,39.818 135.271,37.336 135.361,35.272C135.57,31.025 135.301,30.068 133.327,28.184C131.742,26.659 130.306,26.3 125.581,26.3L121.424,26.3L121.992,27.765C123.428,31.384 124.056,38.024 123.428,43.168C123.009,46.368 121.334,47.564 119.45,45.949L118.642,45.261L119.001,41.732C119.57,36.349 118.882,31.324 117.087,27.825L116.34,26.3L113.05,26.3L109.76,26.3L109.76,35.721L109.76,45.171L109.012,45.889C108.085,46.846 106.949,46.846 106.022,45.889L105.274,45.171L105.274,35.721L105.274,26.3L101.984,26.3L98.694,26.3L98.066,27.556C96.152,31.324 95.434,36.08 96.003,41.433C96.302,44.484 96.302,44.962 95.883,45.59C95.016,46.906 93.102,46.936 92.264,45.65C91.666,44.723 91.128,38.891 91.367,35.87C91.606,32.939 92.234,29.769 93.042,27.736L93.61,26.3L89.453,26.3C84.728,26.3 83.292,26.659 81.707,28.184C79.972,29.859 79.494,31.115 79.524,34.136C79.583,41.433 81.976,49.269 85.894,54.921C87.509,57.254 90.53,60.514 91.905,61.441C92.653,61.92 92.713,61.92 94.268,60.753C97.827,58.062 102.672,56.028 107.128,55.31C108.594,55.071 110.956,54.981 113.558,55.101C117.925,55.25 120.856,55.908 124.594,57.553L126.299,58.301L127.046,57.643C128.033,56.716 130.785,52.499 131.682,50.585C132.699,48.431 133.297,47.833 134.463,47.833C135.54,47.833 136.677,48.94 136.677,50.016C136.677,50.914 133.805,56.207 132.011,58.6L130.396,60.753L133.028,63.325C137.783,68.051 140.325,72.776 141.88,79.894C142,80.462 142.538,80.941 143.765,81.629C148.37,84.23 151.63,89.135 152.707,95.087C153.724,100.769 153.096,103.252 150.075,105.285C144.901,108.814 138.65,110.07 133.327,108.725L131.353,108.216L129.738,109.412C125.043,113.001 117.805,115.244 111.465,115.095L108.534,115.005L107.696,116.052C106.859,117.039 106.829,117.188 106.68,121.555C106.5,126.639 106.051,128.822 104.436,132.142C102.433,136.269 98.904,139.051 94.298,140.127C90.47,141.025 83.441,140.307 78.686,138.542C78.148,138.333 77.46,138.542 75.396,139.559C69.923,142.311 65.527,143.327 58.559,143.387L53.265,143.447L51.381,144.853C49.018,146.647 45.369,148.412 42.468,149.219C39.956,149.907 35.321,150.206 32.988,149.847ZM41.362,144.883C43.126,144.434 47.642,142.34 47.403,142.101C47.343,142.041 46.386,141.653 45.31,141.294C40.106,139.469 35.291,136.299 30.655,131.664C27.515,128.523 23.088,123.05 20.098,118.654C17.735,115.185 17.197,114.796 15.103,115.394C12.681,116.052 10.767,118.504 10.318,121.435C9.72,125.443 13.189,131.993 18.632,137.166C23.627,141.892 28.562,144.584 33.945,145.451C35.47,145.69 39.538,145.391 41.362,144.883ZM94.089,135.611C98.754,134.236 101.775,129.57 102.193,123.08C102.373,120.538 102.343,120.418 101.805,120.628C99.262,121.615 96.631,122.332 94.836,122.482C92.922,122.661 92.623,122.781 92.174,123.469C89.782,127.387 87.987,129.749 85.625,132.142C84.099,133.697 82.873,135.013 82.933,135.043C82.993,135.103 83.83,135.342 84.817,135.581C87.21,136.15 92.204,136.18 94.089,135.611ZM98.216,117.129C100.19,116.381 103.659,114.287 103.36,113.988C103.27,113.928 102.134,113.42 100.848,112.912C96.302,111.057 92.115,107.977 88.795,103.969L87.359,102.265L86.881,103.82C85.774,107.618 86.612,112.194 89.214,116.59L90.171,118.175L93.161,118.026C95.375,117.936 96.69,117.697 98.216,117.129ZM118.433,109.861C122.859,108.755 127.944,105.704 130.875,102.474C135.48,97.39 137.693,91.588 137.664,84.769C137.634,80.313 136.976,77.561 134.882,73.344C131.802,67.094 125.551,62.009 118.762,60.245C113.708,58.929 108.833,59.078 104.078,60.693C91.995,64.761 84.518,77.262 86.851,89.464C88.944,100.291 97.169,108.336 108.175,110.34C110.238,110.728 116.16,110.459 118.433,109.861ZM142.06,104.149C143.914,103.64 146.277,102.534 147.682,101.457C148.58,100.799 148.64,100.62 148.64,99.035C148.61,94.758 146.935,90.391 144.213,87.64L142.568,85.965L142.359,86.862C142.239,87.371 141.97,88.806 141.791,90.092C141.133,94.309 138.979,99.394 136.348,102.893L135.151,104.508L136.288,104.687C137.783,104.926 139.996,104.717 142.06,104.149Z" fill="#FFFFFF"/>
<path d="M96.361,82.652C95.674,82.054 94.806,79.392 94.806,77.867C94.806,75.983 96.93,74.996 98.335,76.222C98.963,76.73 99.891,79.691 99.891,81.127C99.891,82.054 98.724,83.16 97.737,83.16C97.318,83.16 96.69,82.921 96.361,82.652Z" fill="#FFFFFF"/>
<path d="M128.691,91.159C127.914,90.83 127.674,90.471 127.256,89.006C126.987,88.049 126.688,87.032 126.628,86.733C126.149,85.148 128.033,83.503 129.618,84.101C130.486,84.46 130.964,85.357 131.622,87.959C131.981,89.394 131.951,89.574 131.413,90.322C130.605,91.368 129.798,91.638 128.691,91.159Z" fill="#FFFFFF"/>
<path d="M103.091,96.233C102.821,96.024 102.463,95.455 102.283,95.007C100.848,91.089 105.094,86.513 109.222,87.56C110.388,87.859 110.567,87.829 111.255,87.171C114.426,84.15 119.928,85.586 121.155,89.743C121.484,90.79 121.454,91.029 120.915,91.747C119.839,93.182 117.745,93.003 117.087,91.388C116.16,89.175 113.947,89.713 113.947,92.136C113.947,94.947 110.717,95.754 109.64,93.182C109.132,91.926 108.205,91.567 107.218,92.225C106.62,92.614 106.47,92.973 106.47,94.05C106.47,95.007 106.291,95.575 105.872,95.994C105.184,96.682 103.838,96.771 103.091,96.233Z" fill="#FFFFFF"/>
<path d="M39.268,56.527C38.551,56.168 38.222,55.48 37.564,52.908C36.936,50.336 37.564,49.11 39.478,49.11C40.883,49.11 41.392,49.678 41.99,51.981C42.678,54.643 42.618,55.54 41.691,56.258C40.823,56.946 40.255,57.006 39.268,56.527Z" fill="#FFFFFF"/>
<path d="M52.547,71.486C50.992,70.26 51.74,67.389 53.654,67.359C54.132,67.359 54.162,67.209 53.983,66.252C53.684,64.488 53.086,63.77 51.919,63.77C50.573,63.77 49.945,64.547 49.945,66.222C49.945,67.837 49.048,68.854 47.642,68.854C46.237,68.854 45.459,67.718 45.459,65.654C45.459,63.052 46.685,61.078 49.108,59.852C50.304,59.254 52.697,59.104 53.923,59.553C54.521,59.792 54.79,59.702 55.359,59.074C57.99,56.263 63.075,56.622 65.288,59.762C65.736,60.42 66.185,61.437 66.275,62.035C66.424,62.962 66.335,63.261 65.677,63.919C64.48,65.116 63.254,64.876 62.058,63.172C61.28,62.065 60.921,61.796 60.024,61.736C58.529,61.616 57.811,62.633 58.2,64.458C58.469,65.714 58.469,65.714 59.875,65.803C60.981,65.863 61.43,66.073 61.908,66.671C63.404,68.585 62.267,69.721 57.721,70.948C53.893,71.934 53.265,72.024 52.547,71.486Z" fill="#FFFFFF"/>
<path d="M74.26,65.431C73.901,65.042 73.423,63.756 73.094,62.41C72.585,60.137 72.585,60.077 73.183,59.27C73.572,58.761 74.11,58.432 74.709,58.373C76.144,58.223 76.982,59.27 77.639,61.991C78.178,64.264 78.148,64.324 77.55,65.132C76.742,66.238 75.157,66.388 74.26,65.431Z" fill="#FFFFFF"/>
</svg>
