<svg width="886" height="740" viewBox="0 0 886 740" fill="none" xmlns="http://www.w3.org/2000/svg" xmlns:xlink="http://www.w3.org/1999/xlink">
<path d="M671.53,25.512C669.399,26.097 668.146,28.297 668.73,30.428C669.314,32.558 671.515,33.812 673.645,33.228L671.53,25.512ZM702.652,37.078L699.566,39.623L702.304,42.941L705.414,39.971L702.652,37.078ZM744.582,35.462L747.562,32.795L747.402,32.615L747.221,32.457L744.582,35.462ZM702.652,134.971L701.137,138.673L702.988,139.431L704.705,138.404L702.652,134.971ZM663.042,40.564C664.799,39.225 665.138,36.715 663.799,34.958C662.461,33.201 659.951,32.862 658.193,34.2L663.042,40.564ZM673.645,33.228C676.378,32.478 681.18,31.859 686.208,32.611C691.2,33.358 696.079,35.396 699.566,39.623L705.737,34.532C700.624,28.335 693.678,25.64 687.392,24.699C681.141,23.764 675.212,24.503 671.53,25.512L673.645,33.228ZM705.414,39.971C708.071,37.434 713.556,33.653 720.206,32.256C726.641,30.904 734.275,31.736 741.943,38.468L747.221,32.457C737.471,23.896 727.204,22.611 718.561,24.427C710.133,26.197 703.361,30.871 699.89,34.185L705.414,39.971ZM741.601,38.13C748.189,45.489 754.206,58.92 750.709,75.238C747.218,91.529 734.057,111.525 700.599,131.539L704.705,138.404C739.302,117.71 754.417,96.118 758.532,76.915C762.641,57.738 755.596,41.769 747.562,32.795L741.601,38.13ZM704.167,131.269C689.994,125.468 670.019,109.352 658.625,91.012C652.95,81.878 649.647,72.579 649.911,64.021C650.169,55.673 653.828,47.584 663.042,40.564L658.193,34.2C647.195,42.58 642.252,52.855 641.915,63.774C641.584,74.484 645.692,85.355 651.829,95.234C664.059,114.919 685.314,132.197 701.137,138.673L704.167,131.269Z" transform="rotate(67.595 700.818 81.341)" fill="#FFC000"/>
<path d="M732.47,73.633C732.47,80.627 728.207,86.297 722.949,86.297C717.69,86.297 713.427,80.627 713.427,73.633C713.427,66.638 717.69,60.968 722.949,60.968C728.207,60.968 732.47,66.638 732.47,73.633Z" transform="rotate(106.057 722.949 73.633)" stroke="#FFC000" stroke-width="2.4" stroke-miterlimit="3.999327"/>
<path d="M715.287,61.633C715.287,68.628 711.025,74.299 705.766,74.299C700.508,74.299 696.246,68.628 696.246,61.633C696.246,54.638 700.508,48.967 705.766,48.967C711.025,48.967 715.287,54.638 715.287,61.633Z" transform="rotate(40.639 705.766 61.633)" stroke="#FFC000" stroke-width="2.4" stroke-miterlimit="3.999327"/>
<path d="M694.169,68.302C694.169,73.741 690.839,78.15 686.731,78.15C682.623,78.15 679.293,73.741 679.293,68.302C679.293,62.863 682.623,58.454 686.731,58.454C690.839,58.454 694.169,62.863 694.169,68.302Z" transform="rotate(4.455 686.731 68.302)" stroke="#FFC000" stroke-width="2.4" stroke-miterlimit="3.999327"/>
<path d="M729.911,93.292C729.911,98.73 726.58,103.138 722.471,103.138C718.362,103.138 715.032,98.73 715.032,93.292C715.032,87.855 718.362,83.447 722.471,83.447C726.58,83.447 729.911,87.855 729.911,93.292Z" transform="rotate(150.29 722.471 93.292)" stroke="#FFC000" stroke-width="2.4" stroke-miterlimit="3.999327"/>
<path d="M706.229,108.603C707.83,108.177 708.783,106.533 708.357,104.932C707.931,103.331 706.287,102.378 704.686,102.804L706.229,108.603ZM689.331,106.242L689.105,109.233L689.331,106.242ZM680.73,101.611L683.178,99.877L683.178,99.877L680.73,101.611ZM682.342,89.765L684.354,91.99L684.354,91.99L682.342,89.765ZM687.093,86.64L684.553,85.042L684.553,85.042L687.093,86.64ZM688.578,80.395L691.462,81.221L691.462,81.221L688.578,80.395ZM706.875,86.64L704.238,88.071L704.238,88.071L706.875,86.64ZM709.563,88.255L711.072,85.662L711.072,85.662L709.563,88.255ZM710.571,97.553C709.619,98.908 709.945,100.779 711.301,101.732C712.656,102.685 714.527,102.359 715.48,101.003L710.571,97.553ZM704.686,102.804C703.879,103.019 702.747,102.895 701.232,102.485C700.451,102.273 699.888,102.083 699.1,101.853C698.509,101.68 697.559,101.409 696.661,101.409L696.661,107.409C696.57,107.409 696.717,107.408 697.419,107.613C697.925,107.76 698.852,108.056 699.662,108.276C701.331,108.728 703.79,109.251 706.229,108.603L704.686,102.804ZM696.661,101.409C695.712,101.409 694.824,101.694 694.246,101.899C693.681,102.1 692.9,102.423 692.418,102.609C691.204,103.075 690.313,103.307 689.556,103.25L689.105,109.233C691.29,109.398 693.259,108.714 694.572,108.209C695.352,107.908 695.751,107.732 696.253,107.554C696.74,107.381 696.805,107.409 696.661,107.409L696.661,101.409ZM689.556,103.25C687.566,103.1 686.695,102.979 685.958,102.637C685.313,102.338 684.482,101.718 683.178,99.877L678.282,103.345C679.884,105.608 681.452,107.16 683.431,108.079C685.317,108.954 687.292,109.097 689.105,109.233L689.556,103.25ZM683.178,99.877C681.972,98.174 681.731,96.866 681.884,95.841C682.044,94.77 682.714,93.473 684.354,91.99L680.331,87.539C678.045,89.605 676.379,92.072 675.949,94.956C675.512,97.887 676.428,100.728 678.282,103.345L683.178,99.877ZM684.354,91.99C684.389,91.959 684.534,91.848 684.906,91.645C685.296,91.433 685.648,91.267 686.207,90.982C686.695,90.734 687.3,90.412 687.868,90.018C688.425,89.63 689.115,89.059 689.632,88.237L684.553,85.042C684.638,84.907 684.669,84.934 684.443,85.091C684.227,85.241 683.924,85.412 683.482,85.637C683.112,85.825 682.513,86.116 682.035,86.377C681.539,86.647 680.898,87.027 680.331,87.539L684.354,91.99ZM689.632,88.237C690.508,86.845 690.804,85.21 690.978,84.092C691.191,82.725 691.254,81.951 691.462,81.221L685.694,79.57C685.348,80.779 685.183,82.309 685.049,83.17C684.876,84.28 684.707,84.798 684.553,85.042L689.632,88.237ZM691.462,81.221C691.475,81.178 691.488,81.137 691.502,81.099L685.877,79.013C685.809,79.195 685.748,79.381 685.694,79.57L691.462,81.221ZM703.158,81.663C703.195,81.728 703.232,81.794 703.27,81.861L708.505,78.93C708.463,78.854 708.419,78.776 708.373,78.696L703.158,81.663ZM703.27,81.861C703.48,82.235 703.598,82.87 703.624,84.004C703.633,84.416 703.631,85.179 703.658,85.689C703.682,86.153 703.743,87.158 704.238,88.071L709.512,85.209C709.726,85.604 709.674,85.84 709.649,85.372C709.627,84.95 709.639,84.621 709.622,83.87C709.596,82.679 709.502,80.709 708.505,78.93L703.27,81.861ZM704.238,88.071C704.557,88.658 704.966,89.194 705.508,89.637C706.046,90.078 706.581,90.316 706.978,90.462C707.924,90.81 707.737,90.664 708.054,90.848L711.072,85.662C710.546,85.357 710.074,85.17 709.696,85.04C709.52,84.98 709.351,84.928 709.25,84.896C709.131,84.859 709.082,84.843 709.051,84.831C709.012,84.817 709.146,84.862 709.307,84.994C709.472,85.128 709.529,85.241 709.512,85.209L704.238,88.071ZM708.054,90.848C709.673,91.791 710.454,92.7 710.84,93.393C711.221,94.076 711.318,94.725 711.283,95.326C711.246,95.957 711.059,96.543 710.86,96.994C710.763,97.212 710.672,97.38 710.612,97.482C710.583,97.532 710.562,97.565 710.554,97.577C710.55,97.584 710.549,97.585 710.552,97.581C710.553,97.579 710.555,97.576 710.559,97.571C710.56,97.569 710.562,97.566 710.564,97.563C710.565,97.561 710.566,97.56 710.568,97.558C710.568,97.557 710.569,97.556 710.57,97.556C710.57,97.554 710.571,97.553 713.026,99.278C715.48,101.003 715.481,101.002 715.482,101C715.483,101 715.484,100.998 715.484,100.997C715.486,100.995 715.487,100.993 715.489,100.991C715.492,100.986 715.496,100.981 715.499,100.975C715.507,100.965 715.515,100.952 715.525,100.938C715.544,100.909 715.568,100.874 715.594,100.833C715.648,100.749 715.716,100.64 715.794,100.507C715.949,100.241 716.147,99.873 716.347,99.42C716.742,98.527 717.181,97.226 717.272,95.68C717.366,94.104 717.094,92.288 716.08,90.47C715.071,88.661 713.43,87.035 711.072,85.662L708.054,90.848ZM691.502,81.099C692.044,79.638 693.863,78.461 696.78,78.534C699.667,78.606 702.17,79.927 703.158,81.663L708.373,78.696C706.016,74.554 701.157,72.641 696.93,72.536C692.733,72.431 687.687,74.131 685.877,79.013L691.502,81.099Z" transform="rotate(67.595 696.566 91.012)" fill="#FFC000"/>
<path d="M190.316,738.695C175.272,736.275 156.77,729.877 141.381,721.923C98.843,699.961 53.885,652.409 40.052,614.715C35.556,602.437 35.037,598.979 35.037,580.303C35.037,561.455 35.383,558.689 39.706,549.697C42.127,544.337 47.487,536.557 51.291,532.233C58.727,524.107 76.191,513.731 82.416,513.731C84.491,513.731 86.048,513.039 86.048,512.175C86.048,511.137 81.033,500.243 74.808,487.621C62.877,463.413 61.493,457.015 67.027,451.481C71.35,447.159 81.033,446.813 84.664,451.135C86.048,452.691 92.445,464.449 98.67,477.073C130.487,540.879 176.483,602.265 216.945,634.945C304.441,705.149 439.661,682.843 501.047,587.739L507.617,577.883L500.873,570.621C497.243,566.643 491.191,557.133 487.385,549.351C469.921,514.077 468.711,477.937 483.927,447.849L489.289,437.129L483.063,418.799C471.477,383.525 470.785,346.175 481.507,312.457C488.251,291.015 501.393,266.287 512.631,254.183L516.609,249.861L505.369,239.831C479.259,216.661 457.125,181.213 445.195,142.825C436.895,116.196 434.647,101.325 434.473,72.621L434.473,45.646L440.007,35.098L445.541,24.377L402.311,24.377L359.255,24.377L364.615,33.542C391.417,78.846 405.943,140.577 405.943,208.533C405.943,234.125 404.213,242.945 399.025,245.711C394.185,248.305 387.613,247.785 383.637,244.501C380.351,241.561 380.005,239.139 379.313,203.347C377.757,130.029 365.135,81.959 336.257,37.692L327.439,24.377L295.103,24.377L262.595,24.377L261.385,34.234C260.693,39.767 260.693,63.802 261.385,87.492C262.941,149.915 268.301,194.873 277.119,222.885C281.789,237.757 280.751,243.463 272.623,246.403C260.865,250.553 255.505,244.155 248.935,217.179C239.943,181.385 235.965,137.983 235.793,74.177L235.619,24.377L211.065,24.377L186.339,24.377L180.979,31.64C167.491,50.142 155.733,79.538 149.681,109.452C146.395,126.225 145.704,134.179 145.877,166.169C145.877,192.279 146.741,208.187 148.816,219.427C151.583,236.027 151.41,239.139 146.914,244.501C143.975,247.785 136.02,248.477 131.006,245.711C124.781,242.253 120.977,221.329 119.42,180.002C117.345,124.15 127.202,73.659 147.433,37C150.718,30.948 153.485,25.588 153.485,25.242C153.485,23.167 111.812,24.723 101.783,26.971C66.508,35.444 37.631,64.84 29.504,100.806C25.354,119.136 25.354,200.579 29.504,235.335C36.248,291.361 48.179,346.521 63.568,391.653C70.139,411.191 70.312,417.243 64.26,421.913C52.329,431.249 45.931,423.987 35.383,389.231C11.521,310.035 -0.411,233.779 -0.411,162.019C-0.238,92.334 8.062,64.321 37.631,34.752C52.502,19.882 67.2,10.717 86.912,3.973L100.745,-0.695L430.151,-0.695L759.557,-0.695L770.795,4.665C784.629,11.236 796.561,22.821 803.131,36.136C807.455,44.955 807.973,48.24 808.491,65.877C809.183,90.604 805.379,116.715 800.365,121.729C796.041,126.225 787.569,126.225 782.727,121.902C779.441,118.963 779.269,117.406 780.133,108.242C780.653,102.536 781.689,88.184 782.209,76.252C783.419,51.698 781.863,46.165 770.449,35.271C761.285,26.452 752.985,24.377 725.665,24.377L701.629,24.377L704.915,32.85C713.215,53.773 716.845,92.161 713.215,121.902C710.793,140.404 701.111,147.321 690.217,137.983L685.549,134.006L687.623,113.602C690.909,82.477 686.931,53.427 676.557,33.196L672.233,24.377L653.213,24.377L634.191,24.377L634.191,78.846L634.191,133.488L629.869,137.638C624.509,143.171 617.937,143.171 612.577,137.638L608.255,133.488L608.255,78.846L608.255,24.377L589.233,24.377L570.213,24.377L566.581,31.64C555.515,53.427 551.365,80.921 554.651,111.873C556.379,129.511 556.379,132.277 553.959,135.908C548.945,143.517 537.877,143.69 533.035,136.254C529.577,130.894 526.465,97.175 527.849,79.711C529.231,62.765 532.863,44.436 537.531,32.677L540.817,24.377L516.781,24.377C489.461,24.377 481.161,26.452 471.997,35.271C461.967,44.955 459.201,52.217 459.373,69.682C459.719,111.873 473.553,157.177 496.205,189.858C505.543,203.347 523.007,222.195 530.961,227.555C535.283,230.321 535.629,230.321 544.621,223.577C565.199,208.015 593.211,196.256 618.975,192.106C627.449,190.723 641.109,190.204 656.153,190.896C681.399,191.76 698.343,195.565 719.959,205.075L729.815,209.399L734.137,205.595C739.843,200.233 755.753,175.852 760.939,164.786C766.819,152.336 770.277,148.877 777.021,148.877C783.245,148.877 789.817,155.275 789.817,161.5C789.817,166.688 773.217,197.294 762.841,211.127L753.505,223.577L768.721,238.449C796.215,265.769 810.913,293.089 819.905,334.243C820.595,337.529 823.709,340.295 830.797,344.273C857.427,359.317 876.275,387.675 882.499,422.085C888.379,454.939 884.747,469.291 867.283,481.049C837.369,501.453 801.229,508.717 770.449,500.935L759.037,497.995L749.701,504.913C722.553,525.663 680.707,538.631 644.049,537.767L627.103,537.247L622.261,543.299C617.419,549.005 617.247,549.871 616.381,575.117C615.345,604.513 612.751,617.135 603.413,636.329C591.827,660.191 571.423,676.273 544.795,682.497C522.661,687.685 482.025,683.535 454.531,673.333C451.419,672.123 447.443,673.333 435.511,679.211C403.867,695.121 378.449,700.999 338.159,701.345L307.553,701.691L296.659,709.819C282.999,720.193 261.903,730.395 245.131,735.063C230.605,739.041 203.803,740.771 190.316,738.695ZM238.733,709.991C248.935,707.397 275.045,695.293 273.661,693.909C273.315,693.565 267.783,691.317 261.557,689.241C231.469,678.693 203.631,660.365 176.829,633.563C158.672,615.405 133.081,583.763 115.789,558.343C102.129,538.285 99.016,536.037 86.912,539.495C72.906,543.299 61.839,557.479 59.246,574.425C55.787,597.595 75.845,635.465 107.316,665.379C136.193,692.699 164.724,708.261 195.849,713.277C204.667,714.659 228.185,712.931 238.733,709.991ZM543.583,656.387C570.559,648.433 588.023,621.457 590.445,583.935C591.481,569.237 591.309,568.545 588.197,569.755C573.499,575.463 558.281,579.613 547.907,580.477C536.841,581.515 535.111,582.205 532.517,586.183C518.683,608.835 508.309,622.495 494.649,636.329C485.829,645.321 478.741,652.929 479.085,653.101C479.431,653.447 484.273,654.831 489.979,656.215C503.813,659.499 532.691,659.673 543.583,656.387ZM567.447,549.525C578.859,545.201 598.917,533.097 597.187,531.369C596.669,531.023 590.099,528.083 582.663,525.143C556.379,514.423 532.171,496.613 512.977,473.441L504.677,463.585L501.911,472.577C495.513,494.537 500.355,520.993 515.399,546.413L520.931,555.577L538.223,554.713C551.019,554.193 558.627,552.811 567.447,549.525ZM684.337,507.507C709.929,501.109 739.325,483.471 756.271,464.795C782.899,435.399 795.695,401.855 795.523,362.429C795.349,336.665 791.545,320.757 779.441,296.375C761.631,260.235 725.491,230.839 686.239,220.637C657.017,213.029 628.831,213.895 601.337,223.231C531.479,246.749 488.251,319.027 501.737,389.577C513.843,452.173 561.395,498.687 625.027,510.273C636.959,512.521 671.195,510.965 684.337,507.507ZM820.941,474.479C831.663,471.539 845.323,465.141 853.449,458.917C858.637,455.113 858.983,454.075 858.983,444.911C858.811,420.183 849.127,394.937 833.391,379.029L823.881,369.345L822.671,374.533C821.979,377.473 820.423,385.773 819.385,393.209C815.581,417.589 803.131,446.985 787.915,467.217L780.997,476.555L787.569,477.591C796.215,478.975 809.011,477.765 820.941,474.479Z" fill="#FFC000"/>
<path d="M556.726,350.19C552.749,346.731 547.734,331.342 547.734,322.523C547.734,311.629 560.011,305.923 568.138,313.013C571.77,315.952 577.13,333.071 577.13,341.371C577.13,346.731 570.386,353.129 564.68,353.129C562.259,353.129 558.628,351.746 556.726,350.19Z" fill="#FFC000"/>
<path d="M743.648,399.375C739.152,397.473 737.769,395.398 735.348,386.925C733.792,381.392 732.063,375.513 731.717,373.784C728.95,364.619 739.844,355.109 749.009,358.567C754.023,360.642 756.79,365.829 760.594,380.873C762.669,389.173 762.496,390.21 759.384,394.533C754.715,400.585 750.046,402.142 743.648,399.375Z" fill="#FFC000"/>
<path d="M595.632,428.711C594.076,427.501 592.001,424.216 590.963,421.622C582.663,398.97 607.217,372.514 631.08,378.566C637.823,380.295 638.861,380.122 642.838,376.318C661.167,358.853 692.984,367.153 700.073,391.189C701.975,397.241 701.803,398.624 698.69,402.774C692.465,411.074 680.361,410.036 676.557,400.699C671.196,387.903 658.401,391.016 658.401,405.022C658.401,421.276 639.726,425.945 633.501,411.074C630.561,403.811 625.201,401.736 619.494,405.541C616.036,407.788 615.171,409.863 615.171,416.088C615.171,421.622 614.134,424.907 611.713,427.328C607.736,431.305 599.955,431.824 595.632,428.711Z" fill="#FFC000"/>
<path d="M226.628,199.143C222.478,197.068 220.576,193.091 216.772,178.22C213.141,163.349 216.772,156.259 227.839,156.259C235.966,156.259 238.905,159.545 242.364,172.859C246.341,188.249 245.995,193.436 240.634,197.586C235.62,201.563 232.335,201.909 226.628,199.143Z" fill="#FFC000"/>
<path d="M303.403,285.631C294.412,278.541 298.735,261.941 309.801,261.768C312.568,261.768 312.741,260.904 311.703,255.37C309.974,245.168 306.516,241.018 299.772,241.018C291.991,241.018 288.36,245.514 288.36,255.197C288.36,264.535 283.172,270.414 275.045,270.414C266.918,270.414 262.422,263.843 262.422,251.912C262.422,236.868 269.512,225.456 283.518,218.366C290.435,214.908 304.268,214.043 311.358,216.637C314.816,218.02 316.372,217.502 319.657,213.87C334.874,197.616 364.27,199.691 377.066,217.847C379.659,221.652 382.253,227.531 382.772,230.989C383.637,236.349 383.118,238.079 379.314,241.883C372.397,248.799 365.307,247.416 358.391,237.56C353.895,231.162 351.82,229.606 346.632,229.26C337.987,228.568 333.837,234.447 336.085,244.995C337.641,252.258 337.641,252.258 345.768,252.777C352.166,253.122 354.759,254.333 357.526,257.791C366.172,268.858 359.601,275.429 333.318,282.518C311.185,288.224 307.553,288.743 303.403,285.631Z" fill="#FFC000"/>
<path d="M428.94,250.62C426.865,248.372 424.099,240.937 422.197,233.155C419.257,220.014 419.257,219.668 422.716,214.999C424.963,212.06 428.076,210.158 431.534,209.812C439.834,208.947 444.676,214.999 448.48,230.735C451.593,243.876 451.42,244.222 447.961,248.891C443.293,255.289 434.128,256.153 428.94,250.62Z" fill="#FFC000"/>
</svg>
