<svg width="84" height="84" viewBox="0 0 84 84" fill="none" xmlns="http://www.w3.org/2000/svg" xmlns:xlink="http://www.w3.org/1999/xlink">
<g opacity="0.5">
<path d="M0,42C0,18.804 18.804,0 42,0L42,0C65.196,0 84,18.804 84,42L84,42C84,65.196 65.196,84 42,84L42,84C18.804,84 0,65.196 0,42L0,42Z" fill="#EDEDED"/>
</g>
<path d="M21,32.25C21,30.46 21.711,28.743 22.977,27.477C24.243,26.211 25.96,25.5 27.75,25.5L56.25,25.5C58.04,25.5 59.757,26.211 61.023,27.477C62.289,28.743 63,30.46 63,32.25L63,51.75C63,53.54 62.289,55.257 61.023,56.523C59.757,57.789 58.04,58.5 56.25,58.5L27.75,58.5C25.96,58.5 24.243,57.789 22.977,56.523C21.711,55.257 21,53.54 21,51.75L21,32.25ZM27.75,28.5C26.755,28.5 25.802,28.895 25.098,29.598C24.395,30.302 24,31.255 24,32.25L24,34.5L60,34.5L60,32.25C60,31.255 59.605,30.302 58.902,29.598C58.198,28.895 57.245,28.5 56.25,28.5L27.75,28.5ZM24,51.75C24,52.745 24.395,53.698 25.098,54.402C25.802,55.105 26.755,55.5 27.75,55.5L56.25,55.5C57.245,55.5 58.198,55.105 58.902,54.402C59.605,53.698 60,52.745 60,51.75L60,37.5L24,37.5L24,51.75ZM49.5,46.5L54,46.5C54.398,46.5 54.779,46.658 55.061,46.939C55.342,47.221 55.5,47.602 55.5,48C55.5,48.398 55.342,48.779 55.061,49.061C54.779,49.342 54.398,49.5 54,49.5L49.5,49.5C49.102,49.5 48.721,49.342 48.439,49.061C48.158,48.779 48,48.398 48,48C48,47.602 48.158,47.221 48.439,46.939C48.721,46.658 49.102,46.5 49.5,46.5Z" fill="#121212"/>
</svg>
