<svg width="42" height="30" viewBox="0 0 42 30" fill="none" xmlns="http://www.w3.org/2000/svg" xmlns:xlink="http://www.w3.org/1999/xlink">
<path d="M25.5,14L27.5,14L25.5,14ZM20,8.5L20,6.5L20,8.5ZM23.5,14C23.5,14.928 23.131,15.818 22.475,16.475L25.303,19.303C26.71,17.897 27.5,15.989 27.5,14L23.5,14ZM22.475,16.475C21.818,17.131 20.928,17.5 20,17.5L20,21.5C21.989,21.5 23.897,20.71 25.303,19.303L22.475,16.475ZM20,17.5C19.072,17.5 18.182,17.131 17.525,16.475L14.697,19.303C16.103,20.71 18.011,21.5 20,21.5L20,17.5ZM17.525,16.475C16.869,15.818 16.5,14.928 16.5,14L12.5,14C12.5,15.989 13.29,17.897 14.697,19.303L17.525,16.475ZM16.5,14C16.5,13.072 16.869,12.182 17.525,11.525L14.697,8.697C13.29,10.103 12.5,12.011 12.5,14L16.5,14ZM17.525,11.525C18.182,10.869 19.072,10.5 20,10.5L20,6.5C18.011,6.5 16.103,7.29 14.697,8.697L17.525,11.525ZM20,10.5C20.928,10.5 21.818,10.869 22.475,11.525L25.303,8.697C23.897,7.29 21.989,6.5 20,6.5L20,10.5ZM22.475,11.525C23.131,12.182 23.5,13.072 23.5,14L27.5,14C27.5,12.011 26.71,10.103 25.303,8.697L22.475,11.525Z" fill="#FFC000"/>
<path d="M1.667,14L-0.196,13.272C-0.379,13.74 -0.379,14.26 -0.196,14.728L1.667,14ZM38.333,14L40.196,14.728C40.379,14.26 40.379,13.74 40.196,13.272L38.333,14ZM3.53,14.728C6.194,7.906 12.354,3.167 20,3.167L20,-0.833C10.545,-0.833 3.006,5.072 -0.196,13.272L3.53,14.728ZM20,3.167C27.646,3.167 33.806,7.906 36.47,14.728L40.196,13.272C36.994,5.072 29.455,-0.833 20,-0.833L20,3.167ZM36.47,13.272C33.806,20.094 27.646,24.833 20,24.833L20,28.833C29.455,28.833 36.994,22.928 40.196,14.728L36.47,13.272ZM20,24.833C12.354,24.833 6.194,20.094 3.53,13.272L-0.196,14.728C3.006,22.928 10.545,28.833 20,28.833L20,24.833Z" fill="#FFC000"/>
</svg>
