<svg width="40" height="42" viewBox="0 0 40 42" fill="none" xmlns="http://www.w3.org/2000/svg" xmlns:xlink="http://www.w3.org/1999/xlink">
<path d="M13.539,37.7L14.008,39.125L15.039,38.785L15.039,37.7L13.539,37.7ZM24.524,37.7L26.024,37.711L26.024,37.7L24.524,37.7ZM26.879,40.044L26.879,38.544L26.879,38.544L26.879,40.044ZM30.644,40.044L30.648,38.544L30.644,38.544L30.644,40.044ZM37.28,33.504L35.78,33.504L35.78,33.504L37.28,33.504ZM37.28,16.857L38.78,16.857L38.78,16.857L37.28,16.857ZM35.561,13.221L36.516,12.065L36.503,12.054L36.49,12.044L35.561,13.221ZM22.753,3.114L21.82,4.288L21.824,4.291L22.753,3.114ZM15.172,3.25L16.107,4.423L16.127,4.406L16.148,4.389L15.172,3.25ZM2.657,13.221L3.569,14.412L3.58,14.404L3.591,14.395L2.657,13.221ZM0.8,16.857L-0.7,16.821L-0.7,16.839L-0.7,16.857L0.8,16.857ZM11.115,40.044L11.115,38.544L11.115,38.544L11.115,40.044ZM13.487,37.717L13.018,36.292L11.995,36.629L11.987,37.706L13.487,37.717ZM15.039,37.7L15.039,31.856L12.039,31.856L12.039,37.7L15.039,37.7ZM15.039,31.856C15.039,31.21 15.574,30.655 16.272,30.655L16.272,27.655C13.951,27.655 12.039,29.52 12.039,31.856L15.039,31.856ZM16.272,30.655L21.791,30.655L21.791,27.655L16.272,27.655L16.272,30.655ZM21.791,30.655C22.123,30.655 22.439,30.786 22.669,31.014L24.778,28.88C23.982,28.094 22.908,27.655 21.791,27.655L21.791,30.655ZM22.669,31.014C22.898,31.24 23.024,31.544 23.024,31.856L26.024,31.856C26.024,30.736 25.574,29.666 24.778,28.88L22.669,31.014ZM23.024,31.856L23.024,37.7L26.024,37.7L26.024,31.856L23.024,31.856ZM23.024,37.689C23.017,38.715 23.424,39.697 24.15,40.42L26.266,38.294C26.107,38.136 26.022,37.926 26.024,37.711L23.024,37.689ZM24.15,40.42C24.875,41.142 25.858,41.544 26.879,41.544L26.879,38.544C26.646,38.544 26.425,38.452 26.266,38.294L24.15,40.42ZM26.879,41.544L30.644,41.544L30.644,38.544L26.879,38.544L26.879,41.544ZM30.64,41.544C32.791,41.55 34.86,40.71 36.388,39.203L34.282,37.067C33.321,38.014 32.014,38.548 30.648,38.544L30.64,41.544ZM36.388,39.203C37.917,37.696 38.78,35.646 38.78,33.504L35.78,33.504C35.78,34.837 35.243,36.119 34.282,37.067L36.388,39.203ZM38.78,33.504L38.78,16.857L35.78,16.857L35.78,33.504L38.78,33.504ZM38.78,16.857C38.78,15.002 37.948,13.248 36.516,12.065L34.605,14.378C35.353,14.995 35.78,15.904 35.78,16.857L38.78,16.857ZM36.49,12.044L23.683,1.936L21.824,4.291L34.632,14.399L36.49,12.044ZM23.687,1.94C20.897,-0.279 16.904,-0.208 14.196,2.11L16.148,4.389C17.763,3.006 20.154,2.963 21.82,4.288L23.687,1.94ZM14.237,2.077L1.722,12.048L3.591,14.395L16.107,4.423L14.237,2.077ZM1.745,12.031C0.246,13.178 -0.655,14.937 -0.7,16.821L2.3,16.892C2.323,15.924 2.785,15.012 3.569,14.412L1.745,12.031ZM-0.7,16.857L-0.7,33.487L2.3,33.487L2.3,16.857L-0.7,16.857ZM-0.7,33.487C-0.7,37.954 2.96,41.544 7.436,41.544L7.436,38.544C4.583,38.544 2.3,36.263 2.3,33.487L-0.7,33.487ZM7.436,41.544L11.115,41.544L11.115,38.544L7.436,38.544L7.436,41.544ZM11.115,41.544C13.226,41.544 14.972,39.857 14.987,37.728L11.987,37.706C11.984,38.153 11.611,38.544 11.115,38.544L11.115,41.544ZM13.956,39.142L14.008,39.125L13.07,36.275L13.018,36.292L13.956,39.142Z" fill="#6A6E83"/>
</svg>
