<svg width="38" height="40" viewBox="0 0 38 40" fill="none" xmlns="http://www.w3.org/2000/svg" xmlns:xlink="http://www.w3.org/1999/xlink">
<path d="M13.539,35.7L13.539,29.856C13.539,28.365 14.763,27.155 16.272,27.155L21.791,27.155C22.516,27.155 23.211,27.44 23.723,27.947C24.236,28.453 24.524,29.14 24.524,29.856L24.524,35.7C24.519,36.32 24.766,36.917 25.208,37.357C25.65,37.797 26.252,38.044 26.879,38.044L30.644,38.044C32.403,38.049 34.09,37.362 35.335,36.135C36.58,34.908 37.28,33.242 37.28,31.504L37.28,14.857C37.28,13.453 36.65,12.122 35.561,11.221L22.753,1.114C20.525,-0.658 17.333,-0.601 15.172,1.25L2.657,11.221C1.516,12.095 0.834,13.431 0.8,14.857L0.8,31.487C0.8,35.109 3.771,38.044 7.436,38.044L11.115,38.044C12.418,38.044 13.478,37.005 13.487,35.717L13.539,35.7Z" fill="#FFC000"/>
</svg>
