<svg width="36" height="36" viewBox="0 0 36 36" fill="none" xmlns="http://www.w3.org/2000/svg" xmlns:xlink="http://www.w3.org/1999/xlink">
<path d="M28.7,19.5C28.7,18.561 27.939,17.8 27,17.8C26.061,17.8 25.3,18.561 25.3,19.5L28.7,19.5ZM4.5,28.5L2.8,28.5L4.5,28.5ZM7.5,9L7.5,7.3L7.5,9ZM16.5,10.7C17.439,10.7 18.2,9.939 18.2,9C18.2,8.061 17.439,7.3 16.5,7.3L16.5,10.7ZM25.3,19.5L25.3,28.5L28.7,28.5L28.7,19.5L25.3,19.5ZM25.3,28.5C25.3,28.845 25.163,29.175 24.919,29.419L27.323,31.823C28.205,30.942 28.7,29.747 28.7,28.5L25.3,28.5ZM24.919,29.419C24.675,29.663 24.345,29.8 24,29.8L24,33.2C25.247,33.2 26.442,32.705 27.323,31.823L24.919,29.419ZM24,29.8L7.5,29.8L7.5,33.2L24,33.2L24,29.8ZM7.5,29.8C7.155,29.8 6.825,29.663 6.581,29.419L4.177,31.823C5.058,32.705 6.253,33.2 7.5,33.2L7.5,29.8ZM6.581,29.419C6.337,29.175 6.2,28.845 6.2,28.5L2.8,28.5C2.8,29.747 3.295,30.942 4.177,31.823L6.581,29.419ZM6.2,28.5L6.2,12L2.8,12L2.8,28.5L6.2,28.5ZM6.2,12C6.2,11.655 6.337,11.325 6.581,11.081L4.177,8.677C3.295,9.558 2.8,10.753 2.8,12L6.2,12ZM6.581,11.081C6.825,10.837 7.155,10.7 7.5,10.7L7.5,7.3C6.253,7.3 5.058,7.795 4.177,8.677L6.581,11.081ZM7.5,10.7L16.5,10.7L16.5,7.3L7.5,7.3L7.5,10.7Z" fill="#FFC000"/>
<path d="M22.5,2.5C21.395,2.5 20.5,3.395 20.5,4.5C20.5,5.605 21.395,6.5 22.5,6.5L22.5,2.5ZM31.5,4.5L33.5,4.5C33.5,3.395 32.605,2.5 31.5,2.5L31.5,4.5ZM29.5,13.5C29.5,14.605 30.395,15.5 31.5,15.5C32.605,15.5 33.5,14.605 33.5,13.5L29.5,13.5ZM22.5,6.5L31.5,6.5L31.5,2.5L22.5,2.5L22.5,6.5ZM29.5,4.5L29.5,13.5L33.5,13.5L33.5,4.5L29.5,4.5Z" fill="#FFC000"/>
<path d="M13.798,19.798C13.134,20.462 13.134,21.538 13.798,22.202C14.462,22.866 15.538,22.866 16.202,22.202L13.798,19.798ZM32.702,5.702C33.366,5.038 33.366,3.962 32.702,3.298C32.038,2.634 30.962,2.634 30.298,3.298L32.702,5.702ZM16.202,22.202L32.702,5.702L30.298,3.298L13.798,19.798L16.202,22.202Z" fill="#FFC000"/>
</svg>
