<svg width="44" height="44" viewBox="0 0 44 44" fill="none" xmlns="http://www.w3.org/2000/svg" xmlns:xlink="http://www.w3.org/1999/xlink">
<path d="M0.5,9.143C0.5,8.315 1.172,7.643 2,7.643L42,7.643C42.828,7.643 43.5,8.315 43.5,9.143C43.5,9.971 42.828,10.643 42,10.643L2,10.643C1.172,10.643 0.5,9.971 0.5,9.143Z" clip-rule="evenodd" fill-rule="evenodd" fill="#FF4D4F"/>
<path d="M9.214,10.643L9.214,31.8C9.214,36.605 13.109,40.5 17.914,40.5L26.085,40.5C30.89,40.5 34.785,36.605 34.785,31.8L34.785,10.643L9.214,10.643ZM6.214,9.343C6.214,8.404 6.975,7.643 7.914,7.643L36.085,7.643C37.024,7.643 37.785,8.404 37.785,9.343L37.785,31.8C37.785,38.261 32.547,43.5 26.085,43.5L17.914,43.5C11.453,43.5 6.214,38.261 6.214,31.8L6.214,9.343Z" clip-rule="evenodd" fill-rule="evenodd" fill="#FF4D4F"/>
<path d="M16.286,17.643C17.114,17.643 17.786,18.315 17.786,19.143L17.786,30.571C17.786,31.4 17.114,32.071 16.286,32.071C15.457,32.071 14.786,31.4 14.786,30.571L14.786,19.143C14.786,18.315 15.457,17.643 16.286,17.643Z" clip-rule="evenodd" fill-rule="evenodd" fill="#FF4D4F"/>
<path d="M27.714,17.643C28.542,17.643 29.214,18.315 29.214,19.143L29.214,30.571C29.214,31.4 28.542,32.071 27.714,32.071C26.885,32.071 26.214,31.4 26.214,30.571L26.214,19.143C26.214,18.315 26.885,17.643 27.714,17.643Z" clip-rule="evenodd" fill-rule="evenodd" fill="#FF4D4F"/>
<path d="M17.428,3.5C16.048,3.5 14.928,4.62 14.928,6L14.928,9.143C14.928,9.971 14.257,10.643 13.428,10.643C12.6,10.643 11.928,9.971 11.928,9.143L11.928,6C11.928,2.963 14.391,0.5 17.428,0.5L26.571,0.5C29.608,0.5 32.071,2.963 32.071,6L32.071,9.143C32.071,9.971 31.399,10.643 30.571,10.643C29.742,10.643 29.071,9.971 29.071,9.143L29.071,6C29.071,4.62 27.952,3.5 26.571,3.5L17.428,3.5Z" clip-rule="evenodd" fill-rule="evenodd" fill="#FF4D4F"/>
</svg>
