<svg width="40" height="40" viewBox="0 0 40 40" fill="none" xmlns="http://www.w3.org/2000/svg" xmlns:xlink="http://www.w3.org/1999/xlink">
<path d="M32,21.667C32,20.562 31.105,19.667 30,19.667C28.895,19.667 28,20.562 28,21.667L32,21.667ZM5,31.667L3,31.667L5,31.667ZM8.333,10L8.333,8L8.333,10ZM18.333,12C19.438,12 20.333,11.105 20.333,10C20.333,8.895 19.438,8 18.333,8L18.333,12ZM28,21.667L28,31.667L32,31.667L32,21.667L28,21.667ZM28,31.667C28,32.02 27.86,32.359 27.609,32.609L30.438,35.438C31.438,34.438 32,33.081 32,31.667L28,31.667ZM27.609,32.609C27.359,32.86 27.02,33 26.667,33L26.667,37C28.081,37 29.438,36.438 30.438,35.438L27.609,32.609ZM26.667,33L8.333,33L8.333,37L26.667,37L26.667,33ZM8.333,33C7.98,33 7.641,32.86 7.391,32.609L4.562,35.438C5.562,36.438 6.919,37 8.333,37L8.333,33ZM7.391,32.609C7.14,32.359 7,32.02 7,31.667L3,31.667C3,33.081 3.562,34.438 4.562,35.438L7.391,32.609ZM7,31.667L7,13.333L3,13.333L3,31.667L7,31.667ZM7,13.333C7,12.98 7.14,12.641 7.391,12.391L4.562,9.562C3.562,10.562 3,11.919 3,13.333L7,13.333ZM7.391,12.391C7.641,12.14 7.98,12 8.333,12L8.333,8C6.919,8 5.562,8.562 4.562,9.562L7.391,12.391ZM8.333,12L18.333,12L18.333,8L8.333,8L8.333,12Z" fill="#FFC000"/>
<path d="M25,3C23.895,3 23,3.895 23,5C23,6.105 23.895,7 25,7L25,3ZM35,5L37,5C37,3.895 36.105,3 35,3L35,5ZM33,15C33,16.105 33.895,17 35,17C36.105,17 37,16.105 37,15L33,15ZM25,7L35,7L35,3L25,3L25,7ZM33,5L33,15L37,15L37,5L33,5Z" fill="#FFC000"/>
<path d="M15.252,21.919C14.471,22.7 14.471,23.966 15.252,24.748C16.033,25.529 17.3,25.529 18.081,24.748L15.252,21.919ZM36.414,6.414C37.195,5.633 37.195,4.367 36.414,3.586C35.633,2.805 34.367,2.805 33.586,3.586L36.414,6.414ZM18.081,24.748L36.414,6.414L33.586,3.586L15.252,21.919L18.081,24.748Z" fill="#FFC000"/>
</svg>
