<svg width="48" height="46" viewBox="0 0 48 46" fill="none" xmlns="http://www.w3.org/2000/svg" xmlns:xlink="http://www.w3.org/1999/xlink">
<path d="M37.328,5.981C32.124,2.433 25.716,4.014 22.162,8.005C22.081,8.097 21.936,8.097 21.855,8.005C18.301,4.013 11.892,2.413 6.688,5.981C3.888,7.901 2.128,11.141 2.008,14.561C1.728,22.321 8.608,28.541 19.108,38.081L19.308,38.261C20.848,40.001 22.848,40.001 24.688,38.241L24.908,38.041C35.408,28.521 42.268,22.301 42.008,14.541C41.888,11.141 40.128,7.901 37.328,5.981ZM22.848,36.001L21.99,36.86C21.912,36.938 21.785,36.938 21.707,36.86L20.848,36.001C11.328,27.381 4.848,20.781 4.848,15.001C4.848,11.001 8.848,7.001 12.848,7.001C15.881,7.001 19.669,9.192 20.797,11.875C20.829,11.951 20.903,12.001 20.985,12.001L22.71,12.001C22.794,12.001 22.867,11.95 22.899,11.874C24.009,9.191 27.816,7.001 30.848,7.001C34.848,7.001 38.848,11.001 38.848,15.001C38.848,20.781 32.368,27.381 22.848,36.001Z" fill="#6A6E83"/>
<path d="M24.699,38.947C23.179,40.354 20.84,40.354 19.321,38.926L19.101,38.722C8.605,29.032 1.747,22.688 2.007,14.773C2.127,11.305 3.867,7.979 6.685,6.021C11.963,2.349 18.481,4.063 22,8.265C25.518,4.063 32.036,2.329 37.314,6.021C40.133,7.979 41.872,11.305 41.992,14.773C42.272,22.688 35.395,29.032 24.899,38.763L24.699,38.947Z" fill="#FFC000"/>
</svg>
