<svg width="88" height="68" viewBox="0 0 88 68" fill="none" xmlns="http://www.w3.org/2000/svg" xmlns:xlink="http://www.w3.org/1999/xlink">
<path d="M15.998,67.662L15.998,63.161C15.998,61.436 14.941,60.311 13.13,60.311C12.225,60.311 11.244,60.611 10.564,61.586C10.036,60.761 9.282,60.311 8.15,60.311C7.395,60.311 6.641,60.536 6.037,61.361L6.037,60.461L4.452,60.461L4.452,67.662L6.037,67.662L6.037,63.686C6.037,62.411 6.716,61.811 7.773,61.811C8.829,61.811 9.357,62.486 9.357,63.686L9.357,67.662L10.942,67.662L10.942,63.686C10.942,62.411 11.696,61.811 12.677,61.811C13.734,61.811 14.262,62.486 14.262,63.686L14.262,67.662L15.998,67.662ZM39.466,60.461L36.901,60.461L36.901,58.286L35.316,58.286L35.316,60.461L33.882,60.461L33.882,61.886L35.316,61.886L35.316,65.187C35.316,66.837 35.995,67.812 37.806,67.812C38.486,67.812 39.24,67.587 39.768,67.287L39.315,65.937C38.863,66.237 38.335,66.312 37.957,66.312C37.203,66.312 36.901,65.862 36.901,65.112L36.901,61.886L39.466,61.886L39.466,60.461ZM52.899,60.311C51.993,60.311 51.39,60.761 51.012,61.361L51.012,60.461L49.427,60.461L49.427,67.662L51.012,67.662L51.012,63.611C51.012,62.411 51.54,61.736 52.521,61.736C52.823,61.736 53.2,61.811 53.502,61.886L53.955,60.386C53.653,60.311 53.2,60.311 52.899,60.311M32.599,61.061C31.845,60.536 30.788,60.311 29.656,60.311C27.845,60.311 26.638,61.211 26.638,62.637C26.638,63.837 27.544,64.512 29.128,64.737L29.883,64.812C30.713,64.962 31.166,65.187 31.166,65.562C31.166,66.087 30.562,66.462 29.505,66.462C28.449,66.462 27.619,66.087 27.091,65.712L26.336,66.912C27.166,67.512 28.298,67.812 29.43,67.812C31.543,67.812 32.75,66.838 32.75,65.487C32.75,64.212 31.769,63.537 30.26,63.312L29.505,63.237C28.826,63.161 28.298,63.012 28.298,62.562C28.298,62.037 28.826,61.737 29.656,61.737C30.562,61.737 31.468,62.111 31.92,62.337L32.599,61.061ZM74.707,60.311C73.801,60.311 73.198,60.761 72.82,61.361L72.82,60.461L71.236,60.461L71.236,67.662L72.82,67.662L72.82,63.612C72.82,62.412 73.349,61.737 74.329,61.737C74.632,61.737 75.009,61.812 75.311,61.887L75.763,60.386C75.462,60.311 75.009,60.311 74.707,60.311ZM54.483,64.062C54.483,66.237 55.992,67.812 58.332,67.812C59.388,67.812 60.143,67.588 60.897,66.988L60.143,65.712C59.539,66.162 58.936,66.387 58.256,66.387C56.973,66.387 56.068,65.487 56.068,64.062C56.068,62.712 56.973,61.811 58.256,61.737C58.936,61.737 59.539,61.961 60.143,62.412L60.897,61.136C60.143,60.536 59.388,60.311 58.332,60.311C55.992,60.311 54.483,61.887 54.483,64.062ZM69.123,64.062L69.123,60.461L67.538,60.461L67.538,61.361C67.01,60.686 66.255,60.311 65.274,60.311C63.237,60.311 61.652,61.887 61.652,64.062C61.652,66.237 63.237,67.812 65.274,67.812C66.331,67.812 67.086,67.438 67.538,66.762L67.538,67.662L69.123,67.662L69.123,64.062ZM63.312,64.062C63.312,62.787 64.142,61.737 65.5,61.737C66.783,61.737 67.689,62.712 67.689,64.062C67.689,65.337 66.783,66.387 65.5,66.387C64.142,66.312 63.312,65.337 63.312,64.062ZM44.372,60.311C42.259,60.311 40.749,61.811 40.749,64.062C40.749,66.312 42.258,67.812 44.447,67.812C45.503,67.812 46.56,67.512 47.39,66.838L46.635,65.712C46.032,66.162 45.277,66.462 44.522,66.462C43.541,66.462 42.56,66.012 42.334,64.737L47.692,64.737L47.692,64.137C47.767,61.811 46.409,60.311 44.372,60.311ZM44.371,61.661C45.352,61.661 46.032,62.262 46.182,63.387L42.409,63.387C42.56,62.412 43.239,61.661 44.371,61.661ZM83.687,64.062L83.687,57.611L82.102,57.611L82.102,61.361C81.574,60.686 80.819,60.311 79.838,60.311C77.801,60.311 76.216,61.887 76.216,64.062C76.216,66.237 77.801,67.812 79.838,67.812C80.895,67.812 81.649,67.438 82.102,66.762L82.102,67.662L83.687,67.662L83.687,64.062ZM77.876,64.062C77.876,62.787 78.706,61.737 80.064,61.737C81.347,61.737 82.253,62.712 82.253,64.062C82.253,65.337 81.347,66.387 80.064,66.387C78.706,66.312 77.876,65.337 77.876,64.062ZM24.902,64.062L24.902,60.461L23.317,60.461L23.317,61.361C22.789,60.686 22.034,60.311 21.053,60.311C19.016,60.311 17.431,61.887 17.431,64.062C17.431,66.237 19.016,67.812 21.053,67.812C22.11,67.812 22.864,67.438 23.317,66.762L23.317,67.662L24.902,67.662L24.902,64.062ZM19.016,64.062C19.016,62.787 19.846,61.737 21.204,61.737C22.487,61.737 23.393,62.712 23.393,64.062C23.393,65.337 22.487,66.387 21.204,66.387C19.846,66.312 19.016,65.337 19.016,64.062Z" fill="#000000"/>
<rect  x="32.071" y="5.776" width="23.77" height="42.458" fill="#FF5F00"/>
<path d="M33.581,27.005C33.581,18.378 37.655,10.727 43.919,5.776C39.316,2.175 33.505,0 27.167,0C12.149,0 0,12.077 0,27.005C0,41.932 12.149,54.01 27.166,54.01C33.505,54.01 39.315,51.834 43.919,48.234C37.655,43.358 33.581,35.631 33.581,27.005Z" fill="#EB001B"/>
<path d="M87.913,27.005C87.913,41.932 75.764,54.01 60.746,54.01C54.408,54.01 48.597,51.834 43.994,48.234C50.333,43.283 54.332,35.631 54.332,27.005C54.332,18.378 50.257,10.727 43.994,5.776C48.597,2.175 54.408,0 60.746,0C75.764,0 87.913,12.152 87.913,27.005Z" fill="#F79E1B"/>
</svg>
