<svg width="32" height="40" viewBox="0 0 32 40" fill="none" xmlns="http://www.w3.org/2000/svg" xmlns:xlink="http://www.w3.org/1999/xlink">
<path d="M15.97,25.192C12.07,25.192 8.281,25.482 5.422,26.44C3.984,26.922 2.67,27.609 1.701,28.614C0.697,29.657 0.129,30.979 0.129,32.546L3.129,32.546C3.129,31.771 3.385,31.19 3.862,30.696C4.374,30.164 5.194,29.681 6.375,29.285C8.752,28.488 12.134,28.192 15.97,28.192L15.97,25.192ZM0.129,32.546C0.129,34.109 0.692,35.432 1.69,36.478C2.654,37.488 3.964,38.182 5.4,38.67C8.256,39.641 12.047,39.941 15.97,39.941L15.97,36.941C12.115,36.941 8.735,36.635 6.365,35.83C5.188,35.429 4.371,34.942 3.861,34.407C3.385,33.909 3.129,33.324 3.129,32.546L0.129,32.546ZM15.97,39.941C19.869,39.941 23.657,39.651 26.517,38.692C27.954,38.21 29.268,37.523 30.236,36.518C31.24,35.476 31.809,34.154 31.809,32.588L28.809,32.588C28.809,33.362 28.552,33.942 28.076,34.437C27.564,34.968 26.743,35.452 25.563,35.848C23.187,36.645 19.805,36.941 15.97,36.941L15.97,39.941ZM31.809,32.588C31.809,31.024 31.245,29.702 30.247,28.656C29.284,27.646 27.974,26.953 26.538,26.464C23.682,25.493 19.892,25.192 15.97,25.192L15.97,28.192C19.824,28.192 23.203,28.499 25.573,29.304C26.749,29.705 27.566,30.192 28.077,30.727C28.552,31.225 28.809,31.81 28.809,32.588L31.809,32.588Z" fill="#121212"/>
<path d="M6.777,10.819L8.206,10.824L8.206,10.819L6.777,10.819ZM15.905,20.012L15.9,21.44L15.905,21.44L15.905,20.012ZM15.97,21.44C21.835,21.44 26.589,16.684 26.589,10.819L23.731,10.819C23.731,15.107 20.256,18.583 15.97,18.583L15.97,21.44ZM26.589,10.819C26.589,4.954 21.835,0.2 15.97,0.2L15.97,3.057C20.257,3.057 23.731,6.532 23.731,10.819L26.589,10.819ZM15.97,0.2C10.105,0.2 5.349,4.954 5.349,10.819L8.206,10.819C8.206,6.533 11.682,3.057 15.97,3.057L15.97,0.2ZM5.349,10.815C5.329,16.662 10.053,21.421 15.9,21.44L15.91,18.583C11.642,18.569 8.191,15.095 8.206,10.824L5.349,10.815ZM15.905,21.44L15.97,21.44L15.97,18.583L15.905,18.583L15.905,21.44Z" fill="#121212"/>
</svg>
