<svg width="32" height="40" viewBox="0 0 32 40" fill="none" xmlns="http://www.w3.org/2000/svg" xmlns:xlink="http://www.w3.org/1999/xlink">
<path d="M15.251,23.828C11.506,23.828 7.862,24.104 5.108,25.023C3.723,25.486 2.452,26.146 1.512,27.116C0.537,28.124 -0.017,29.404 -0.017,30.921L2.983,30.921C2.983,30.201 3.222,29.663 3.668,29.202C4.15,28.704 4.928,28.246 6.057,27.869C8.33,27.111 11.569,26.828 15.251,26.828L15.251,23.828ZM-0.017,30.921C-0.017,32.435 0.532,33.716 1.502,34.728C2.436,35.703 3.703,36.369 5.087,36.837C7.838,37.768 11.484,38.055 15.251,38.055L15.251,35.055C11.552,35.055 8.314,34.762 6.048,33.995C4.923,33.615 4.148,33.153 3.667,32.652C3.222,32.187 2.983,31.645 2.983,30.921L-0.017,30.921ZM15.251,38.055C18.995,38.055 22.639,37.778 25.393,36.858C26.777,36.396 28.049,35.736 28.988,34.766C29.962,33.758 30.516,32.478 30.516,30.961L27.516,30.961C27.516,31.682 27.278,32.219 26.832,32.68C26.35,33.178 25.572,33.636 24.443,34.013C22.171,34.772 18.932,35.055 15.251,35.055L15.251,38.055ZM30.516,30.961C30.516,29.448 29.967,28.167 28.998,27.156C28.064,26.181 26.797,25.514 25.414,25.046C22.664,24.115 19.018,23.828 15.251,23.828L15.251,26.828C18.95,26.828 22.187,27.121 24.452,27.888C25.577,28.269 26.352,28.731 26.832,29.232C27.278,29.696 27.516,30.238 27.516,30.961L30.516,30.961Z" fill="#6A6E83"/>
<path d="M6.426,10.161L7.855,10.166L7.855,10.161L6.426,10.161ZM15.189,18.945L15.184,20.373L15.189,20.373L15.189,18.945ZM15.251,20.373C20.907,20.373 25.502,15.806 25.502,10.161L22.645,10.161C22.645,14.216 19.341,17.516 15.251,17.516L15.251,20.373ZM25.502,10.161C25.502,4.515 20.907,-0.05 15.251,-0.05L15.251,2.807C19.341,2.807 22.645,6.105 22.645,10.161L25.502,10.161ZM15.251,-0.05C9.595,-0.05 4.998,4.514 4.998,10.161L7.855,10.161C7.855,6.106 11.16,2.807 15.251,2.807L15.251,-0.05ZM4.998,10.156C4.978,15.785 9.546,20.354 15.184,20.373L15.193,17.516C11.122,17.502 7.841,14.205 7.855,10.166L4.998,10.156ZM15.189,20.373L15.251,20.373L15.251,17.516L15.189,17.516L15.189,20.373Z" fill="#6A6E83"/>
</svg>
