<svg width="46" height="52" viewBox="0 0 46 52" fill="none" xmlns="http://www.w3.org/2000/svg" xmlns:xlink="http://www.w3.org/1999/xlink">
<path d="M23.711,29.939C23.711,31.043 24.606,31.939 25.711,31.939C26.815,31.939 27.711,31.043 27.711,29.939L23.711,29.939ZM27.711,2.703C27.711,1.599 26.815,0.703 25.711,0.703C24.606,0.703 23.711,1.599 23.711,2.703L27.711,2.703ZM27.711,29.939L27.711,2.703L23.711,2.703L23.711,29.939L27.711,29.939Z" transform="rotate(-180 25.711 16.321)" fill="#FFFFFF"/>
<path d="M44.806,13.635C45.585,12.853 45.582,11.586 44.799,10.807C44.017,10.028 42.75,10.031 41.971,10.814L44.806,13.635ZM35.233,20.418L33.815,21.829C34.191,22.206 34.701,22.418 35.233,22.418C35.765,22.418 36.275,22.206 36.65,21.829L35.233,20.418ZM28.495,10.814C27.716,10.031 26.449,10.028 25.666,10.807C24.884,11.586 24.881,12.853 25.66,13.635L28.495,10.814ZM41.971,10.814L33.815,19.007L36.65,21.829L44.806,13.635L41.971,10.814ZM36.65,19.007L28.495,10.814L25.66,13.635L33.815,21.829L36.65,19.007Z" transform="rotate(-180 35.233 16.321)" fill="#FFFFFF"/>
<path d="M22.284,22.56C22.284,21.455 21.388,20.56 20.284,20.56C19.179,20.56 18.284,21.455 18.284,22.56L22.284,22.56ZM18.284,49.796C18.284,50.9 19.179,51.796 20.284,51.796C21.388,51.796 22.284,50.9 22.284,49.796L18.284,49.796ZM18.284,22.56L18.284,49.796L22.284,49.796L22.284,22.56L18.284,22.56Z" transform="rotate(-180 20.284 36.178)" fill="#FFFFFF"/>
<path d="M1.188,38.863C0.409,39.646 0.412,40.912 1.195,41.692C1.978,42.471 3.244,42.468 4.023,41.685L1.188,38.863ZM10.761,32.081L12.179,30.67C11.803,30.293 11.293,30.081 10.761,30.081C10.229,30.081 9.719,30.293 9.344,30.67L10.761,32.081ZM17.499,41.685C18.279,42.468 19.545,42.471 20.328,41.692C21.111,40.912 21.114,39.646 20.334,38.863L17.499,41.685ZM4.023,41.685L12.179,33.492L9.344,30.67L1.188,38.863L4.023,41.685ZM9.344,33.492L17.499,41.685L20.334,38.863L12.179,30.67L9.344,33.492Z" transform="rotate(-180 10.761 36.178)" fill="#FFFFFF"/>
</svg>
