<svg width="46" height="36" viewBox="0 0 46 36" fill="none" xmlns="http://www.w3.org/2000/svg" xmlns:xlink="http://www.w3.org/1999/xlink">
<path d="M20.429,13.05C19.843,12.464 19.843,11.515 20.429,10.929C21.015,10.343 21.964,10.343 22.55,10.929L27.5,15.879L32.45,10.929C33.035,10.343 33.985,10.343 34.571,10.929C35.157,11.515 35.157,12.464 34.571,13.05L29.621,18L34.571,22.95C35.157,23.536 35.157,24.485 34.571,25.071C33.985,25.657 33.035,25.657 32.45,25.071L27.5,20.121L22.55,25.071C21.964,25.657 21.015,25.657 20.429,25.071C19.843,24.485 19.843,23.536 20.429,22.95L25.379,18L20.429,13.05Z" fill="#000000"/>
<path d="M14.243,2.757L-1,18L14.243,33.243C15.368,34.368 16.894,35 18.485,35L39,35C42.314,35 45,32.314 45,29L45,7C45,3.686 42.314,1 39,1L18.485,1C16.894,1 15.368,1.632 14.243,2.757ZM39,32.4L18.485,32.4C17.583,32.4 16.719,32.042 16.081,31.404L2.677,18L16.081,4.596C16.719,3.958 17.583,3.6 18.485,3.6L39,3.6C40.878,3.6 42.4,5.122 42.4,7L42.4,29C42.4,30.878 40.878,32.4 39,32.4Z" clip-rule="evenodd" fill-rule="evenodd" fill="#000000"/>
</svg>
