<svg width="44" height="38" viewBox="0 0 44 38" fill="none" xmlns="http://www.w3.org/2000/svg" xmlns:xlink="http://www.w3.org/1999/xlink">
<path d="M37.624,37C41.868,37 44,34.986 44,30.938L44,7.062C44,3.014 41.868,1 37.624,1L19.98,1C17.604,1 15.553,1.587 13.888,3.288L1.929,15.255C0.609,16.565 0,17.739 0,18.971C0,20.183 0.589,21.376 1.929,22.686L13.909,34.595C15.594,36.276 17.624,36.98 20,36.98L37.624,37ZM37.584,33.852L19.939,33.852C18.396,33.852 17.442,33.5 16.365,32.444L4.467,20.613C3.777,19.929 3.574,19.46 3.574,18.971C3.574,18.462 3.797,17.993 4.467,17.309L16.345,5.439C17.401,4.402 18.396,4.148 19.919,4.148L37.584,4.148C39.614,4.148 40.731,5.185 40.731,7.218L40.731,30.782C40.731,32.815 39.614,33.852 37.584,33.852ZM18.802,27.262C19.249,27.262 19.655,27.086 19.959,26.773L25.726,21.2L31.492,26.773C31.797,27.066 32.203,27.262 32.67,27.262C33.563,27.262 34.294,26.538 34.294,25.678C34.294,25.228 34.112,24.857 33.807,24.563L28.041,19.01L33.827,13.417C34.152,13.085 34.315,12.752 34.315,12.322C34.315,11.442 33.584,10.758 32.69,10.758C32.264,10.758 31.898,10.895 31.553,11.227L25.726,16.82L19.919,11.247C19.614,10.934 19.249,10.797 18.802,10.797C17.909,10.797 17.178,11.462 17.178,12.342C17.178,12.772 17.34,13.143 17.665,13.437L23.431,19.01L17.665,24.583C17.34,24.857 17.178,25.248 17.178,25.678C17.178,26.538 17.909,27.262 18.802,27.262Z" transform="rotate(0 22 19)" fill="#111111"/>
</svg>
