<svg width="42" height="26" viewBox="0 0 42 26" fill="none" xmlns="http://www.w3.org/2000/svg" xmlns:xlink="http://www.w3.org/1999/xlink">
<path d="M39,8.36C40.105,8.36 41,7.465 41,6.36C41,5.255 40.105,4.36 39,4.36L39,8.36ZM14.29,4.36C13.185,4.36 12.29,5.255 12.29,6.36C12.29,7.465 13.185,8.36 14.29,8.36L14.29,4.36ZM2,4.36C0.895,4.36 0,5.255 0,6.36C0,7.465 0.895,8.36 2,8.36L2,4.36ZM39,21.574C40.105,21.574 41,20.679 41,19.574C41,18.469 40.105,17.574 39,17.574L39,21.574ZM2,17.574C0.895,17.574 0,18.469 0,19.574C0,20.679 0.895,21.574 2,21.574L2,17.574ZM14.288,6.36L16.288,6.36L14.288,6.36ZM23.142,23.936L23.142,25.936L23.142,23.936ZM23.142,15.214L23.142,13.214L23.142,15.214ZM39,4.36L14.29,4.36L14.29,8.36L39,8.36L39,4.36ZM5.568,4.36L2,4.36L2,8.36L5.568,8.36L5.568,4.36ZM39,17.574L27.504,17.574L27.504,21.574L39,21.574L39,17.574ZM18.782,17.574L2,17.574L2,21.574L18.782,21.574L18.782,17.574ZM9.928,12.72C11.615,12.72 13.232,12.05 14.425,10.857L11.597,8.029C11.154,8.471 10.554,8.72 9.928,8.72L9.928,12.72ZM14.425,10.857C15.618,9.664 16.288,8.047 16.288,6.36L12.288,6.36C12.288,6.986 12.039,7.586 11.597,8.029L14.425,10.857ZM16.288,6.36C16.288,4.673 15.618,3.056 14.425,1.863L11.597,4.691C12.039,5.134 12.288,5.734 12.288,6.36L16.288,6.36ZM14.425,1.863C13.232,0.67 11.615,0 9.928,0L9.928,4C10.554,4 11.154,4.249 11.597,4.691L14.425,1.863ZM9.928,0C8.241,0 6.624,0.67 5.431,1.863L8.259,4.691C8.702,4.249 9.302,4 9.928,4L9.928,0ZM5.431,1.863C4.238,3.056 3.568,4.673 3.568,6.36L7.568,6.36C7.568,5.734 7.817,5.134 8.259,4.691L5.431,1.863ZM3.568,6.36C3.568,8.047 4.238,9.664 5.431,10.857L8.259,8.029C7.817,7.586 7.568,6.986 7.568,6.36L3.568,6.36ZM5.431,10.857C6.624,12.05 8.241,12.72 9.928,12.72L9.928,8.72C9.302,8.72 8.702,8.471 8.259,8.029L5.431,10.857ZM23.142,25.936C24.829,25.936 26.447,25.266 27.64,24.073L24.811,21.244C24.369,21.687 23.768,21.936 23.142,21.936L23.142,25.936ZM27.64,24.073C28.832,22.88 29.504,21.262 29.504,19.574L25.504,19.574C25.504,20.199 25.255,20.801 24.811,21.244L27.64,24.073ZM29.504,19.574C29.504,17.885 28.832,16.269 27.64,15.077L24.811,17.906C25.255,18.349 25.504,18.949 25.504,19.574L29.504,19.574ZM27.64,15.077C26.447,13.884 24.829,13.214 23.142,13.214L23.142,17.214C23.768,17.214 24.369,17.463 24.811,17.906L27.64,15.077ZM23.142,13.214C21.455,13.214 19.838,13.884 18.645,15.077L21.473,17.905C21.916,17.463 22.516,17.214 23.142,17.214L23.142,13.214ZM18.645,15.077C17.452,16.27 16.782,17.887 16.782,19.574L20.782,19.574C20.782,18.948 21.031,18.348 21.473,17.905L18.645,15.077ZM16.782,19.574C16.782,21.261 17.452,22.878 18.645,24.071L21.473,21.243C21.031,20.8 20.782,20.2 20.782,19.574L16.782,19.574ZM18.645,24.071C19.836,25.262 21.453,25.936 23.142,25.936L23.142,21.936C22.518,21.936 21.917,21.687 21.473,21.243L18.645,24.071Z" fill="#FFFFFF"/>
</svg>
