<svg width="32" height="42" viewBox="0 0 32 42" fill="none" xmlns="http://www.w3.org/2000/svg" xmlns:xlink="http://www.w3.org/1999/xlink">
<path d="M31.469,17.281C31.469,17.075 31.3,16.906 31.094,16.906L28.281,16.906C28.075,16.906 27.906,17.075 27.906,17.281C27.906,23.858 22.577,29.188 16,29.188C9.423,29.188 4.094,23.858 4.094,17.281C4.094,17.075 3.925,16.906 3.719,16.906L0.906,16.906C0.7,16.906 0.531,17.075 0.531,17.281C0.531,25.189 6.466,31.714 14.125,32.637L14.125,37.438L7.314,37.438C6.672,37.438 6.156,38.108 6.156,38.938L6.156,40.625C6.156,40.831 6.288,41 6.447,41L25.553,41C25.712,41 25.844,40.831 25.844,40.625L25.844,38.938C25.844,38.108 25.328,37.438 24.686,37.438L17.687,37.438L17.687,32.661C25.436,31.817 31.469,25.255 31.469,17.281ZM16,25.25C20.402,25.25 23.969,21.725 23.969,17.375L23.969,6.875C23.969,2.525 20.402,-1 16,-1C11.598,-1 8.031,2.525 8.031,6.875L8.031,17.375C8.031,21.725 11.598,25.25 16,25.25ZM11.594,6.875C11.594,4.503 13.558,2.563 16,2.563C18.442,2.563 20.406,4.503 20.406,6.875L20.406,17.375C20.406,19.747 18.442,21.688 16,21.688C13.558,21.688 11.594,19.747 11.594,17.375L11.594,6.875Z" fill="#6A6E83"/>
</svg>
