<svg width="40" height="40" viewBox="0 0 40 40" fill="none" xmlns="http://www.w3.org/2000/svg" xmlns:xlink="http://www.w3.org/1999/xlink">
<path d="M20,3.2C22.206,3.2 24.391,3.634 26.429,4.479C28.467,5.323 30.319,6.56 31.879,8.12C33.439,9.68 34.677,11.532 35.521,13.571C36.365,15.609 36.8,17.794 36.8,20C36.8,22.206 36.365,24.391 35.521,26.429C34.677,28.467 33.439,30.319 31.879,31.879C30.319,33.439 28.467,34.677 26.429,35.521C24.391,36.365 22.206,36.8 20,36.8L20,3.2ZM20,0.8C14.908,0.8 10.024,2.823 6.424,6.423C2.823,10.024 0.8,14.908 0.8,20C0.8,25.092 2.823,29.976 6.424,33.576C10.024,37.177 14.908,39.2 20,39.2C25.092,39.2 29.976,37.177 33.576,33.576C37.177,29.976 39.2,25.092 39.2,20C39.2,14.908 37.177,10.024 33.576,6.423C29.976,2.823 25.092,0.8 20,0.8Z" fill="#121212"/>
</svg>
