<svg width="42" height="34" viewBox="0 0 42 34" fill="none" xmlns="http://www.w3.org/2000/svg" xmlns:xlink="http://www.w3.org/1999/xlink">
<path d="M-1,6.25C-1,4.46 -0.289,2.743 0.977,1.477C2.243,0.211 3.96,-0.5 5.75,-0.5L34.25,-0.5C36.04,-0.5 37.757,0.211 39.023,1.477C40.289,2.743 41,4.46 41,6.25L41,25.75C41,27.54 40.289,29.257 39.023,30.523C37.757,31.789 36.04,32.5 34.25,32.5L5.75,32.5C3.96,32.5 2.243,31.789 0.977,30.523C-0.289,29.257 -1,27.54 -1,25.75L-1,6.25ZM5.75,2.5C4.755,2.5 3.802,2.895 3.098,3.598C2.395,4.302 2,5.255 2,6.25L2,8.5L38,8.5L38,6.25C38,5.255 37.605,4.302 36.902,3.598C36.198,2.895 35.245,2.5 34.25,2.5L5.75,2.5ZM2,25.75C2,26.745 2.395,27.698 3.098,28.402C3.802,29.105 4.755,29.5 5.75,29.5L34.25,29.5C35.245,29.5 36.198,29.105 36.902,28.402C37.605,27.698 38,26.745 38,25.75L38,11.5L2,11.5L2,25.75ZM27.5,20.5L32,20.5C32.398,20.5 32.779,20.658 33.061,20.939C33.342,21.221 33.5,21.602 33.5,22C33.5,22.398 33.342,22.779 33.061,23.061C32.779,23.342 32.398,23.5 32,23.5L27.5,23.5C27.102,23.5 26.721,23.342 26.439,23.061C26.158,22.779 26,22.398 26,22C26,21.602 26.158,21.221 26.439,20.939C26.721,20.658 27.102,20.5 27.5,20.5Z" fill="#FFFFFF"/>
</svg>
