<svg width="26" height="22" viewBox="0 0 26 22" fill="none" xmlns="http://www.w3.org/2000/svg" xmlns:xlink="http://www.w3.org/1999/xlink">
<path d="M17.469,-0.063C15.271,-0.063 13.321,0.805 12,2.296C10.679,0.805 8.729,-0.063 6.531,-0.063C4.617,-0.06 2.783,0.701 1.429,2.054C0.076,3.408 -0.685,5.242 -0.688,7.156C-0.688,15.068 10.885,21.39 11.378,21.656C11.569,21.759 11.783,21.813 12,21.813C12.217,21.813 12.431,21.759 12.622,21.656C13.115,21.39 24.688,15.068 24.688,7.156C24.685,5.242 23.924,3.408 22.571,2.054C21.217,0.701 19.382,-0.06 17.469,-0.063ZM16.868,15.508C15.345,16.801 13.717,17.964 12,18.986C10.283,17.964 8.655,16.801 7.132,15.508C4.762,13.475 1.938,10.374 1.938,7.156C1.938,5.938 2.421,4.769 3.283,3.908C4.144,3.046 5.313,2.563 6.531,2.563C8.478,2.563 10.108,3.591 10.785,5.247C10.883,5.488 11.052,5.695 11.268,5.84C11.484,5.985 11.739,6.063 12,6.063C12.261,6.063 12.516,5.985 12.732,5.84C12.948,5.695 13.117,5.488 13.215,5.247C13.892,3.591 15.522,2.563 17.469,2.563C18.687,2.563 19.856,3.046 20.717,3.908C21.578,4.769 22.063,5.938 22.063,7.156C22.063,10.374 19.238,13.475 16.868,15.508Z" fill="#FFC000"/>
</svg>
