<svg width="34" height="28" viewBox="0 0 34 28" fill="none" xmlns="http://www.w3.org/2000/svg" xmlns:xlink="http://www.w3.org/1999/xlink">
<path d="M2,12C0.895,12 0,12.895 0,14C0,15.105 0.895,16 2,16L2,12ZM32,14L33.365,15.462C33.77,15.084 34,14.554 34,14C34,13.446 33.77,12.916 33.365,12.538L32,14ZM17.778,24.538C16.971,25.292 16.927,26.557 17.681,27.365C18.434,28.172 19.7,28.216 20.507,27.462L17.778,24.538ZM20.507,0.538C19.7,-0.216 18.434,-0.172 17.681,0.635C16.927,1.443 16.971,2.708 17.778,3.462L20.507,0.538ZM2,16L32,16L32,12L2,12L2,16ZM20.507,27.462L33.365,15.462L30.635,12.538L17.778,24.538L20.507,27.462ZM17.778,3.462L30.635,15.462L33.365,12.538L20.507,0.538L17.778,3.462Z" transform="rotate(360 17 14)" fill="#130F26"/>
</svg>
