<svg width="86" height="28" viewBox="0 0 86 28" fill="none" xmlns="http://www.w3.org/2000/svg" xmlns:xlink="http://www.w3.org/1999/xlink">
<path d="M44.477,18.973C44.428,15.088 47.925,12.92 50.559,11.631C53.265,10.309 54.174,9.46 54.164,8.278C54.143,6.468 52.005,5.669 50.004,5.638C46.512,5.584 44.482,6.585 42.868,7.342L41.611,1.432C43.23,0.682 46.228,0.029 49.337,0C56.635,0 61.41,3.618 61.436,9.227C61.464,16.346 51.631,16.74 51.698,19.922C51.721,20.887 52.638,21.916 54.647,22.178C55.641,22.31 58.386,22.411 61.498,20.972L62.72,26.69C61.046,27.302 58.895,27.888 56.217,27.888C49.348,27.888 44.516,24.221 44.477,18.973ZM74.457,27.396C73.124,27.396 72.001,26.615 71.5,25.417L61.074,0.42L68.367,0.42L69.819,4.448L78.73,4.448L79.572,0.42L86,0.42L80.391,27.396L74.457,27.396ZM75.477,20.109L77.581,9.979L71.817,9.979L75.477,20.109ZM35.635,27.395L29.886,0.421L36.836,0.421L42.582,27.396L35.635,27.395ZM25.354,27.395L18.121,9.035L15.195,24.647C14.851,26.389 13.496,27.396 11.99,27.396L0.166,27.396L0,26.612C2.427,26.083 5.186,25.23 6.856,24.317C7.879,23.76 8.171,23.272 8.507,21.947L14.049,0.42L21.392,0.42L32.652,27.396L25.354,27.395Z" fill="url(#pf_0_261_1389)"/>
<defs>
<linearGradient id="pf_0_261_1389" x1="3953.764" y1="-55.943" x2="4719.422" y2="2788.8" gradientUnits="userSpaceOnUse">
<stop stop-color="#222357"/>
<stop offset="1" stop-color="#254AA5"/>
</linearGradient>
</defs>
</svg>
