<svg width="42" height="36" viewBox="0 0 42 36" fill="none" xmlns="http://www.w3.org/2000/svg" xmlns:xlink="http://www.w3.org/1999/xlink">
<path d="M1.333,16C0.229,16 -0.667,16.895 -0.667,18C-0.667,19.105 0.229,20 1.333,20L1.333,16ZM38.667,18L40.081,19.414C40.862,18.633 40.862,17.367 40.081,16.586L38.667,18ZM21.252,32.586C20.471,33.367 20.471,34.633 21.252,35.414C22.034,36.195 23.3,36.195 24.081,35.414L21.252,32.586ZM24.081,0.586C23.3,-0.195 22.034,-0.195 21.252,0.586C20.471,1.367 20.471,2.633 21.252,3.414L24.081,0.586ZM1.333,20L38.667,20L38.667,16L1.333,16L1.333,20ZM24.081,35.414L40.081,19.414L37.253,16.586L21.252,32.586L24.081,35.414ZM21.252,3.414L37.253,19.414L40.081,16.586L24.081,0.586L21.252,3.414Z" fill="#FFFFFF"/>
</svg>
