<svg width="1048" height="1048" viewBox="0 0 1048 1048" fill="none" xmlns="http://www.w3.org/2000/svg" xmlns:xlink="http://www.w3.org/1999/xlink">
<path d="M258.582,14.87C245.266,18.515 237.426,32.266 241.07,45.583C244.716,58.901 258.466,66.741 271.784,63.096L258.582,14.87ZM528.184,110.983L508.912,126.909L526.008,147.595L545.432,129.079L528.184,110.983ZM918.184,95.983L936.796,79.293L935.792,78.174L934.662,77.183L918.184,95.983ZM528.184,1019.982L518.728,1043.126L530.284,1047.848L541,1041.448L528.184,1019.982ZM182.319,105.881C193.308,97.522 195.441,81.837 187.082,70.848C178.723,59.858 163.038,57.726 152.049,66.085L182.319,105.881ZM271.784,63.096C328.05,47.693 438.39,41.576 508.912,126.909L547.454,95.057C457.978,-13.21 321.65,-2.395 258.582,14.87L271.784,63.096ZM545.432,129.079C571.386,104.339 624.364,67.87 688.94,54.326C752.182,41.061 827.212,49.487 901.704,114.783L934.662,77.183C847.154,0.479 755.686,-10.762 678.676,5.39C603.002,21.263 541.98,63.293 510.934,92.887L545.432,129.079ZM899.57,112.673C963.046,183.46 1020.57,312.018 987.116,467.86C953.696,623.54 828.316,811.638 515.366,998.518L541,1041.448C861.05,850.328 998.67,652.258 1036.002,478.356C1073.298,304.614 1009.322,160.172 936.796,79.293L899.57,112.673ZM537.64,996.84C404.07,942.264 223.884,784.534 123.891,605.302C74.079,516.018 45.495,423.716 50.685,338.058C55.807,253.516 93.907,173.131 182.319,105.881L152.049,66.085C52.461,141.835 6.81,235.45 0.776,335.034C-5.19,433.498 27.664,535.448 80.227,629.664C184.984,817.432 373.298,983.702 518.728,1043.126L537.64,996.84Z" fill="#FFBC00"/>
</svg>
