<svg width="46" height="40" viewBox="0 0 46 40" fill="none" xmlns="http://www.w3.org/2000/svg" xmlns:xlink="http://www.w3.org/1999/xlink">
<path d="M31.844,-0.113C27.889,-0.113 24.378,1.449 22,4.132C19.622,1.449 16.112,-0.113 12.156,-0.113C8.711,-0.108 5.409,1.262 2.973,3.698C0.537,6.134 -0.833,9.436 -0.837,12.881C-0.837,27.123 19.994,38.502 20.88,38.981C21.224,39.166 21.609,39.263 22,39.263C22.391,39.263 22.776,39.166 23.12,38.981C24.006,38.502 44.838,27.123 44.838,12.881C44.833,9.436 43.463,6.134 41.027,3.698C38.591,1.262 35.289,-0.108 31.844,-0.113ZM30.763,27.915C28.021,30.241 25.09,32.335 22,34.175C18.91,32.335 15.979,30.241 13.237,27.915C8.971,24.255 3.888,18.673 3.888,12.881C3.888,10.688 4.759,8.585 6.309,7.034C7.86,5.484 9.963,4.612 12.156,4.612C15.661,4.612 18.594,6.463 19.813,9.444C19.99,9.878 20.293,10.25 20.683,10.512C21.072,10.774 21.531,10.913 22,10.913C22.469,10.913 22.928,10.774 23.318,10.512C23.707,10.25 24.01,9.878 24.187,9.444C25.406,6.463 28.339,4.612 31.844,4.612C34.037,4.612 36.14,5.484 37.691,7.034C39.241,8.585 40.113,10.688 40.113,12.881C40.113,18.673 35.029,24.255 30.763,27.915Z" fill="#FFC000"/>
</svg>
