<svg width="42" height="36" viewBox="0 0 42 36" fill="none" xmlns="http://www.w3.org/2000/svg" xmlns:xlink="http://www.w3.org/1999/xlink">
<path d="M35.328,1.981C30.124,-1.567 23.716,0.014 20.162,4.005C20.08,4.097 19.936,4.097 19.854,4.005C16.301,0.013 9.892,-1.587 4.688,1.981C1.888,3.901 0.128,7.141 0.008,10.561C-0.272,18.321 6.608,24.541 17.108,34.081L17.308,34.261C18.848,36.001 20.848,36.001 22.688,34.241L22.908,34.041C33.408,24.521 40.268,18.301 40.008,10.541C39.888,7.141 38.128,3.901 35.328,1.981ZM20.848,32.001L19.99,32.86C19.912,32.938 19.785,32.938 19.707,32.86L18.848,32.001C9.328,23.381 2.848,16.781 2.848,11.001C2.848,7.001 6.848,3.001 10.848,3.001C13.881,3.001 17.669,5.192 18.797,7.875C18.829,7.951 18.903,8.001 18.985,8.001L20.71,8.001C20.793,8.001 20.867,7.95 20.899,7.874C22.009,5.191 25.816,3.001 28.848,3.001C32.848,3.001 36.848,7.001 36.848,11.001C36.848,16.781 30.368,23.381 20.848,32.001Z" fill="#6A6E83"/>
</svg>
